STARTFONT 2.1
COMMENT 
COMMENT This file has been produced by ttf2bdf written by Subhabrata Biswas
COMMENT 
COMMENT For comments, questions, bug reports, send a mail to
COMMENT                                           subhabrata.biswas@usa.net
COMMENT 
FONT -*-QuinqueFive-Bold-R-Normal--13-100-96-96-c-17--fontspecific
SIZE 10 96 96
FONTBOUNDINGBOX 14 15 0 -3
STARTPROPERTIES 15
FOUNDRY "Misc"
FAMILY_NAME "QuinqueFive"
WEIGHT_NAME "Bold"
SLANT "R"
SETWIDTH_NAME "Normal"
PIXEL_SIZE 7
POINT_SIZE 100
RESOLUTION_X 96
RESOLUTION_Y 96
SPACING "C"
CHARSET_ENCODING "fontspecific"
FONT_ASCENT 12
FONT_DESCENT 3
DEFAULT_CHAR 31
COPYRIGHT "You may wish to put your copyright here"
ENDPROPERTIES
CHARS 226
STARTCHAR C0030
ENCODING 30
SWIDTH 1275 0
DWIDTH 17 0
BBX 14 13 0 -3
BITMAP
FFFC
FFFC
FFFC
FFFC
FFFC
FFFC
FFFC
FFFC
FFFC
FFFC
FFFC
FFFC
FFFC
ENDCHAR
STARTCHAR C0031
ENCODING 31
SWIDTH 1275 0
DWIDTH 17 0
BBX 14 13 0 -3
BITMAP
FFFC
FFFC
FFFC
FFFC
FFFC
FFFC
FFFC
FFFC
FFFC
FFFC
FFFC
FFFC
FFFC
ENDCHAR
STARTCHAR C0032- 
ENCODING 32
SWIDTH 1275 0
DWIDTH 17 0
BBX 1 1 0 -1
BITMAP
00
ENDCHAR
STARTCHAR C0033-!
ENCODING 33
SWIDTH 1275 0
DWIDTH 17 0
BBX 4 13 5 -3
BITMAP
F0
F0
F0
F0
F0
F0
F0
00
00
00
F0
F0
F0
ENDCHAR
STARTCHAR C0034-"
ENCODING 34
SWIDTH 1275 0
DWIDTH 17 0
BBX 8 5 3 5
BITMAP
E7
E7
E7
E7
E7
ENDCHAR
STARTCHAR C0035-#
ENCODING 35
SWIDTH 1275 0
DWIDTH 17 0
BBX 14 13 0 -3
BITMAP
1CE0
1CE0
FFFC
FFFC
FFFC
1CE0
1CE0
FFFC
FFFC
FFFC
1CE0
1CE0
1CE0
ENDCHAR
STARTCHAR C0036-$
ENCODING 36
SWIDTH 1275 0
DWIDTH 17 0
BBX 14 13 0 -3
BITMAP
1FFC
1FFC
F780
F780
F780
1FE0
1FE0
07BC
07BC
07BC
FFE0
FFE0
FFE0
ENDCHAR
STARTCHAR C0037-%
ENCODING 37
SWIDTH 1275 0
DWIDTH 17 0
BBX 14 13 0 -3
BITMAP
F03C
F03C
00E0
00E0
00E0
0780
0780
1C00
1C00
1C00
F03C
F03C
F03C
ENDCHAR
STARTCHAR C0038-&
ENCODING 38
SWIDTH 1275 0
DWIDTH 17 0
BBX 14 13 0 -3
BITMAP
1F80
1F80
F000
F000
F000
1FBC
1FBC
F0E0
F0E0
F0E0
1FBC
1FBC
1FBC
ENDCHAR
STARTCHAR C0039-'
ENCODING 39
SWIDTH 1275 0
DWIDTH 17 0
BBX 4 5 5 5
BITMAP
F0
F0
F0
F0
F0
ENDCHAR
STARTCHAR C0040-(
ENCODING 40
SWIDTH 1275 0
DWIDTH 17 0
BBX 8 13 3 -3
BITMAP
3F
3F
E0
E0
E0
E0
E0
E0
E0
E0
3F
3F
3F
ENDCHAR
STARTCHAR C0041-)
ENCODING 41
SWIDTH 1275 0
DWIDTH 17 0
BBX 8 13 3 -3
BITMAP
FC
FC
07
07
07
07
07
07
07
07
FC
FC
FC
ENDCHAR
STARTCHAR C0042-*
ENCODING 42
SWIDTH 1275 0
DWIDTH 17 0
BBX 8 7 3 3
BITMAP
E7
E7
3C
3C
3C
E7
E7
ENDCHAR
STARTCHAR C0043-+
ENCODING 43
SWIDTH 1275 0
DWIDTH 17 0
BBX 14 13 0 -3
BITMAP
0780
0780
0780
0780
0780
FFFC
FFFC
0780
0780
0780
0780
0780
0780
ENDCHAR
STARTCHAR C0044-,
ENCODING 44
SWIDTH 1275 0
DWIDTH 17 0
BBX 6 6 3 -3
BITMAP
3C
3C
3C
E0
E0
E0
ENDCHAR
STARTCHAR C0045--
ENCODING 45
SWIDTH 1275 0
DWIDTH 17 0
BBX 14 2 0 3
BITMAP
FFFC
FFFC
ENDCHAR
STARTCHAR C0046-.
ENCODING 46
SWIDTH 1275 0
DWIDTH 17 0
BBX 4 3 5 -3
BITMAP
F0
F0
F0
ENDCHAR
STARTCHAR C0047-/
ENCODING 47
SWIDTH 1275 0
DWIDTH 17 0
BBX 14 13 0 -3
BITMAP
003C
003C
00E0
00E0
00E0
0780
0780
1C00
1C00
1C00
F000
F000
F000
ENDCHAR
STARTCHAR C0048-0
ENCODING 48
SWIDTH 1275 0
DWIDTH 17 0
BBX 14 13 0 -3
BITMAP
FFFC
FFFC
F03C
F03C
F03C
F03C
F03C
F03C
F03C
F03C
FFFC
FFFC
FFFC
ENDCHAR
STARTCHAR C0049-1
ENCODING 49
SWIDTH 1275 0
DWIDTH 17 0
BBX 14 13 0 -3
BITMAP
1F80
1F80
F780
F780
F780
0780
0780
0780
0780
0780
FFFC
FFFC
FFFC
ENDCHAR
STARTCHAR C0050-2
ENCODING 50
SWIDTH 1275 0
DWIDTH 17 0
BBX 14 13 0 -3
BITMAP
FFE0
FFE0
003C
003C
003C
07E0
07E0
1C00
1C00
1C00
FFFC
FFFC
FFFC
ENDCHAR
STARTCHAR C0051-3
ENCODING 51
SWIDTH 1275 0
DWIDTH 17 0
BBX 14 13 0 -3
BITMAP
FFFC
FFFC
003C
003C
003C
1FFC
1FFC
003C
003C
003C
FFFC
FFFC
FFFC
ENDCHAR
STARTCHAR C0052-4
ENCODING 52
SWIDTH 1275 0
DWIDTH 17 0
BBX 14 13 0 -3
BITMAP
F03C
F03C
F03C
F03C
F03C
FFFC
FFFC
003C
003C
003C
003C
003C
003C
ENDCHAR
STARTCHAR C0053-5
ENCODING 53
SWIDTH 1275 0
DWIDTH 17 0
BBX 14 13 0 -3
BITMAP
FFFC
FFFC
F000
F000
F000
FFFC
FFFC
003C
003C
003C
FFFC
FFFC
FFFC
ENDCHAR
STARTCHAR C0054-6
ENCODING 54
SWIDTH 1275 0
DWIDTH 17 0
BBX 14 13 0 -3
BITMAP
FFFC
FFFC
F000
F000
F000
FFFC
FFFC
F03C
F03C
F03C
FFFC
FFFC
FFFC
ENDCHAR
STARTCHAR C0055-7
ENCODING 55
SWIDTH 1275 0
DWIDTH 17 0
BBX 14 13 0 -3
BITMAP
FFFC
FFFC
003C
003C
003C
00E0
00E0
0780
0780
0780
1C00
1C00
1C00
ENDCHAR
STARTCHAR C0056-8
ENCODING 56
SWIDTH 1275 0
DWIDTH 17 0
BBX 14 13 0 -3
BITMAP
FFFC
FFFC
F03C
F03C
F03C
FFFC
FFFC
F03C
F03C
F03C
FFFC
FFFC
FFFC
ENDCHAR
STARTCHAR C0057-9
ENCODING 57
SWIDTH 1275 0
DWIDTH 17 0
BBX 14 13 0 -3
BITMAP
FFFC
FFFC
F03C
F03C
F03C
FFFC
FFFC
003C
003C
003C
FFFC
FFFC
FFFC
ENDCHAR
STARTCHAR C0058-:
ENCODING 58
SWIDTH 1275 0
DWIDTH 17 0
BBX 4 8 5 0
BITMAP
F0
F0
F0
00
00
F0
F0
F0
ENDCHAR
STARTCHAR C0059-;
ENCODING 59
SWIDTH 1275 0
DWIDTH 17 0
BBX 6 11 3 -3
BITMAP
3C
3C
3C
00
00
3C
3C
3C
E0
E0
E0
ENDCHAR
STARTCHAR C0060-<
ENCODING 60
SWIDTH 1275 0
DWIDTH 17 0
BBX 14 13 0 -3
BITMAP
00FC
00FC
1F80
1F80
1F80
F000
F000
1F80
1F80
1F80
00FC
00FC
00FC
ENDCHAR
STARTCHAR C0061-=
ENCODING 61
SWIDTH 1275 0
DWIDTH 17 0
BBX 14 8 0 0
BITMAP
FFFC
FFFC
FFFC
0000
0000
FFFC
FFFC
FFFC
ENDCHAR
STARTCHAR C0062->
ENCODING 62
SWIDTH 1275 0
DWIDTH 17 0
BBX 14 13 0 -3
BITMAP
FC00
FC00
07E0
07E0
07E0
003C
003C
07E0
07E0
07E0
FC00
FC00
FC00
ENDCHAR
STARTCHAR C0063-?
ENCODING 63
SWIDTH 1275 0
DWIDTH 17 0
BBX 8 13 3 -3
BITMAP
FF
FF
07
07
07
3C
3C
00
00
00
3C
3C
3C
ENDCHAR
STARTCHAR C0064-@
ENCODING 64
SWIDTH 1275 0
DWIDTH 17 0
BBX 14 13 0 -3
BITMAP
1FE0
1FE0
F03C
F03C
F03C
F7BC
F7BC
F0FC
F0FC
F0FC
1C00
1C00
1C00
ENDCHAR
STARTCHAR C0065-A
ENCODING 65
SWIDTH 1275 0
DWIDTH 17 0
BBX 14 13 0 -3
BITMAP
1FE0
1FE0
F03C
F03C
F03C
F03C
F03C
FFFC
FFFC
FFFC
F03C
F03C
F03C
ENDCHAR
STARTCHAR C0066-B
ENCODING 66
SWIDTH 1275 0
DWIDTH 17 0
BBX 14 13 0 -3
BITMAP
FFE0
FFE0
F03C
F03C
F03C
FFE0
FFE0
F03C
F03C
F03C
FFE0
FFE0
FFE0
ENDCHAR
STARTCHAR C0067-C
ENCODING 67
SWIDTH 1275 0
DWIDTH 17 0
BBX 14 13 0 -3
BITMAP
1FFC
1FFC
F000
F000
F000
F000
F000
F000
F000
F000
1FFC
1FFC
1FFC
ENDCHAR
STARTCHAR C0068-D
ENCODING 68
SWIDTH 1275 0
DWIDTH 17 0
BBX 14 13 0 -3
BITMAP
FFE0
FFE0
F03C
F03C
F03C
F03C
F03C
F03C
F03C
F03C
FFE0
FFE0
FFE0
ENDCHAR
STARTCHAR C0069-E
ENCODING 69
SWIDTH 1275 0
DWIDTH 17 0
BBX 14 13 0 -3
BITMAP
FFFC
FFFC
F000
F000
F000
FFE0
FFE0
F000
F000
F000
FFFC
FFFC
FFFC
ENDCHAR
STARTCHAR C0070-F
ENCODING 70
SWIDTH 1275 0
DWIDTH 17 0
BBX 14 13 0 -3
BITMAP
FFFC
FFFC
F000
F000
F000
FFE0
FFE0
F000
F000
F000
F000
F000
F000
ENDCHAR
STARTCHAR C0071-G
ENCODING 71
SWIDTH 1275 0
DWIDTH 17 0
BBX 14 13 0 -3
BITMAP
1FFC
1FFC
F000
F000
F000
F7FC
F7FC
F03C
F03C
F03C
1FFC
1FFC
1FFC
ENDCHAR
STARTCHAR C0072-H
ENCODING 72
SWIDTH 1275 0
DWIDTH 17 0
BBX 14 13 0 -3
BITMAP
F03C
F03C
F03C
F03C
F03C
FFFC
FFFC
F03C
F03C
F03C
F03C
F03C
F03C
ENDCHAR
STARTCHAR C0073-I
ENCODING 73
SWIDTH 1275 0
DWIDTH 17 0
BBX 14 13 0 -3
BITMAP
FFFC
FFFC
0780
0780
0780
0780
0780
0780
0780
0780
FFFC
FFFC
FFFC
ENDCHAR
STARTCHAR C0074-J
ENCODING 74
SWIDTH 1275 0
DWIDTH 17 0
BBX 14 13 0 -3
BITMAP
003C
003C
003C
003C
003C
F03C
F03C
F03C
F03C
F03C
1FE0
1FE0
1FE0
ENDCHAR
STARTCHAR C0075-K
ENCODING 75
SWIDTH 1275 0
DWIDTH 17 0
BBX 14 13 0 -3
BITMAP
F03C
F03C
F0E0
F0E0
F0E0
FF80
FF80
F0E0
F0E0
F0E0
F03C
F03C
F03C
ENDCHAR
STARTCHAR C0076-L
ENCODING 76
SWIDTH 1275 0
DWIDTH 17 0
BBX 14 13 0 -3
BITMAP
F000
F000
F000
F000
F000
F000
F000
F000
F000
F000
FFFC
FFFC
FFFC
ENDCHAR
STARTCHAR C0077-M
ENCODING 77
SWIDTH 1275 0
DWIDTH 17 0
BBX 14 13 0 -3
BITMAP
F03C
F03C
FCFC
FCFC
FCFC
F7BC
F7BC
F7BC
F7BC
F7BC
F03C
F03C
F03C
ENDCHAR
STARTCHAR C0078-N
ENCODING 78
SWIDTH 1275 0
DWIDTH 17 0
BBX 14 13 0 -3
BITMAP
F03C
F03C
FC3C
FC3C
FC3C
F7BC
F7BC
F0FC
F0FC
F0FC
F03C
F03C
F03C
ENDCHAR
STARTCHAR C0079-O
ENCODING 79
SWIDTH 1275 0
DWIDTH 17 0
BBX 14 13 0 -3
BITMAP
1FE0
1FE0
F03C
F03C
F03C
F03C
F03C
F03C
F03C
F03C
1FE0
1FE0
1FE0
ENDCHAR
STARTCHAR C0080-P
ENCODING 80
SWIDTH 1275 0
DWIDTH 17 0
BBX 14 13 0 -3
BITMAP
FFE0
FFE0
F03C
F03C
F03C
FFE0
FFE0
F000
F000
F000
F000
F000
F000
ENDCHAR
STARTCHAR C0081-Q
ENCODING 81
SWIDTH 1275 0
DWIDTH 17 0
BBX 14 13 0 -3
BITMAP
1FE0
1FE0
F03C
F03C
F03C
F03C
F03C
F0E0
F0E0
F0E0
1FBC
1FBC
1FBC
ENDCHAR
STARTCHAR C0082-R
ENCODING 82
SWIDTH 1275 0
DWIDTH 17 0
BBX 14 13 0 -3
BITMAP
FFE0
FFE0
F03C
F03C
F03C
FFE0
FFE0
F0E0
F0E0
F0E0
F03C
F03C
F03C
ENDCHAR
STARTCHAR C0083-S
ENCODING 83
SWIDTH 1275 0
DWIDTH 17 0
BBX 14 13 0 -3
BITMAP
1FFC
1FFC
F000
F000
F000
1FE0
1FE0
003C
003C
003C
FFE0
FFE0
FFE0
ENDCHAR
STARTCHAR C0084-T
ENCODING 84
SWIDTH 1275 0
DWIDTH 17 0
BBX 14 13 0 -3
BITMAP
FFFC
FFFC
0780
0780
0780
0780
0780
0780
0780
0780
0780
0780
0780
ENDCHAR
STARTCHAR C0085-U
ENCODING 85
SWIDTH 1275 0
DWIDTH 17 0
BBX 14 13 0 -3
BITMAP
F03C
F03C
F03C
F03C
F03C
F03C
F03C
F03C
F03C
F03C
1FE0
1FE0
1FE0
ENDCHAR
STARTCHAR C0086-V
ENCODING 86
SWIDTH 1275 0
DWIDTH 17 0
BBX 14 13 0 -3
BITMAP
F03C
F03C
F03C
F03C
F03C
F03C
F03C
1CE0
1CE0
1CE0
0780
0780
0780
ENDCHAR
STARTCHAR C0087-W
ENCODING 87
SWIDTH 1275 0
DWIDTH 17 0
BBX 14 13 0 -3
BITMAP
F03C
F03C
F7BC
F7BC
F7BC
F7BC
F7BC
F7BC
F7BC
F7BC
1FE0
1FE0
1FE0
ENDCHAR
STARTCHAR C0088-X
ENCODING 88
SWIDTH 1275 0
DWIDTH 17 0
BBX 14 13 0 -3
BITMAP
F03C
F03C
1CE0
1CE0
1CE0
0780
0780
1CE0
1CE0
1CE0
F03C
F03C
F03C
ENDCHAR
STARTCHAR C0089-Y
ENCODING 89
SWIDTH 1275 0
DWIDTH 17 0
BBX 14 13 0 -3
BITMAP
F03C
F03C
F03C
F03C
F03C
1FE0
1FE0
0780
0780
0780
0780
0780
0780
ENDCHAR
STARTCHAR C0090-Z
ENCODING 90
SWIDTH 1275 0
DWIDTH 17 0
BBX 14 13 0 -3
BITMAP
FFFC
FFFC
00E0
00E0
00E0
0780
0780
1C00
1C00
1C00
FFFC
FFFC
FFFC
ENDCHAR
STARTCHAR C0091-[
ENCODING 91
SWIDTH 1275 0
DWIDTH 17 0
BBX 8 13 3 -3
BITMAP
FF
FF
E0
E0
E0
E0
E0
E0
E0
E0
FF
FF
FF
ENDCHAR
STARTCHAR C0092-\
ENCODING 92
SWIDTH 1275 0
DWIDTH 17 0
BBX 14 13 0 -3
BITMAP
F000
F000
1C00
1C00
1C00
0780
0780
00E0
00E0
00E0
003C
003C
003C
ENDCHAR
STARTCHAR C0093-]
ENCODING 93
SWIDTH 1275 0
DWIDTH 17 0
BBX 8 13 3 -3
BITMAP
FF
FF
07
07
07
07
07
07
07
07
FF
FF
FF
ENDCHAR
STARTCHAR C0094-^
ENCODING 94
SWIDTH 1275 0
DWIDTH 17 0
BBX 8 5 3 5
BITMAP
3C
3C
E7
E7
E7
ENDCHAR
STARTCHAR C0095-_
ENCODING 95
SWIDTH 1275 0
DWIDTH 17 0
BBX 14 3 0 -3
BITMAP
FFFC
FFFC
FFFC
ENDCHAR
STARTCHAR C0096-`
ENCODING 96
SWIDTH 1275 0
DWIDTH 17 0
BBX 6 5 3 5
BITMAP
E0
E0
3C
3C
3C
ENDCHAR
STARTCHAR C0097-a
ENCODING 97
SWIDTH 1275 0
DWIDTH 17 0
BBX 14 13 0 -3
BITMAP
1FE0
1FE0
F03C
F03C
F03C
F03C
F03C
FFFC
FFFC
FFFC
F03C
F03C
F03C
ENDCHAR
STARTCHAR C0098-b
ENCODING 98
SWIDTH 1275 0
DWIDTH 17 0
BBX 14 13 0 -3
BITMAP
FFE0
FFE0
F03C
F03C
F03C
FFE0
FFE0
F03C
F03C
F03C
FFE0
FFE0
FFE0
ENDCHAR
STARTCHAR C0099-c
ENCODING 99
SWIDTH 1275 0
DWIDTH 17 0
BBX 14 13 0 -3
BITMAP
1FFC
1FFC
F000
F000
F000
F000
F000
F000
F000
F000
1FFC
1FFC
1FFC
ENDCHAR
STARTCHAR C0100-d
ENCODING 100
SWIDTH 1275 0
DWIDTH 17 0
BBX 14 13 0 -3
BITMAP
FFE0
FFE0
F03C
F03C
F03C
F03C
F03C
F03C
F03C
F03C
FFE0
FFE0
FFE0
ENDCHAR
STARTCHAR C0101-e
ENCODING 101
SWIDTH 1275 0
DWIDTH 17 0
BBX 14 13 0 -3
BITMAP
FFFC
FFFC
F000
F000
F000
FFE0
FFE0
F000
F000
F000
FFFC
FFFC
FFFC
ENDCHAR
STARTCHAR C0102-f
ENCODING 102
SWIDTH 1275 0
DWIDTH 17 0
BBX 14 13 0 -3
BITMAP
FFFC
FFFC
F000
F000
F000
FFE0
FFE0
F000
F000
F000
F000
F000
F000
ENDCHAR
STARTCHAR C0103-g
ENCODING 103
SWIDTH 1275 0
DWIDTH 17 0
BBX 14 13 0 -3
BITMAP
1FFC
1FFC
F000
F000
F000
F7FC
F7FC
F03C
F03C
F03C
1FFC
1FFC
1FFC
ENDCHAR
STARTCHAR C0104-h
ENCODING 104
SWIDTH 1275 0
DWIDTH 17 0
BBX 14 13 0 -3
BITMAP
F03C
F03C
F03C
F03C
F03C
FFFC
FFFC
F03C
F03C
F03C
F03C
F03C
F03C
ENDCHAR
STARTCHAR C0105-i
ENCODING 105
SWIDTH 1275 0
DWIDTH 17 0
BBX 14 13 0 -3
BITMAP
FFFC
FFFC
0780
0780
0780
0780
0780
0780
0780
0780
FFFC
FFFC
FFFC
ENDCHAR
STARTCHAR C0106-j
ENCODING 106
SWIDTH 1275 0
DWIDTH 17 0
BBX 14 13 0 -3
BITMAP
003C
003C
003C
003C
003C
F03C
F03C
F03C
F03C
F03C
1FE0
1FE0
1FE0
ENDCHAR
STARTCHAR C0107-k
ENCODING 107
SWIDTH 1275 0
DWIDTH 17 0
BBX 14 13 0 -3
BITMAP
F03C
F03C
F0E0
F0E0
F0E0
FF80
FF80
F0E0
F0E0
F0E0
F03C
F03C
F03C
ENDCHAR
STARTCHAR C0108-l
ENCODING 108
SWIDTH 1275 0
DWIDTH 17 0
BBX 14 13 0 -3
BITMAP
F000
F000
F000
F000
F000
F000
F000
F000
F000
F000
FFFC
FFFC
FFFC
ENDCHAR
STARTCHAR C0109-m
ENCODING 109
SWIDTH 1275 0
DWIDTH 17 0
BBX 14 13 0 -3
BITMAP
F03C
F03C
FCFC
FCFC
FCFC
F7BC
F7BC
F7BC
F7BC
F7BC
F03C
F03C
F03C
ENDCHAR
STARTCHAR C0110-n
ENCODING 110
SWIDTH 1275 0
DWIDTH 17 0
BBX 14 13 0 -3
BITMAP
F03C
F03C
FC3C
FC3C
FC3C
F7BC
F7BC
F0FC
F0FC
F0FC
F03C
F03C
F03C
ENDCHAR
STARTCHAR C0111-o
ENCODING 111
SWIDTH 1275 0
DWIDTH 17 0
BBX 14 13 0 -3
BITMAP
1FE0
1FE0
F03C
F03C
F03C
F03C
F03C
F03C
F03C
F03C
1FE0
1FE0
1FE0
ENDCHAR
STARTCHAR C0112-p
ENCODING 112
SWIDTH 1275 0
DWIDTH 17 0
BBX 14 13 0 -3
BITMAP
FFE0
FFE0
F03C
F03C
F03C
FFE0
FFE0
F000
F000
F000
F000
F000
F000
ENDCHAR
STARTCHAR C0113-q
ENCODING 113
SWIDTH 1275 0
DWIDTH 17 0
BBX 14 13 0 -3
BITMAP
1FE0
1FE0
F03C
F03C
F03C
F03C
F03C
F0E0
F0E0
F0E0
1FBC
1FBC
1FBC
ENDCHAR
STARTCHAR C0114-r
ENCODING 114
SWIDTH 1275 0
DWIDTH 17 0
BBX 14 13 0 -3
BITMAP
FFE0
FFE0
F03C
F03C
F03C
FFE0
FFE0
F0E0
F0E0
F0E0
F03C
F03C
F03C
ENDCHAR
STARTCHAR C0115-s
ENCODING 115
SWIDTH 1275 0
DWIDTH 17 0
BBX 14 13 0 -3
BITMAP
1FFC
1FFC
F000
F000
F000
1FE0
1FE0
003C
003C
003C
FFE0
FFE0
FFE0
ENDCHAR
STARTCHAR C0116-t
ENCODING 116
SWIDTH 1275 0
DWIDTH 17 0
BBX 14 13 0 -3
BITMAP
FFFC
FFFC
0780
0780
0780
0780
0780
0780
0780
0780
0780
0780
0780
ENDCHAR
STARTCHAR C0117-u
ENCODING 117
SWIDTH 1275 0
DWIDTH 17 0
BBX 14 13 0 -3
BITMAP
F03C
F03C
F03C
F03C
F03C
F03C
F03C
F03C
F03C
F03C
1FE0
1FE0
1FE0
ENDCHAR
STARTCHAR C0118-v
ENCODING 118
SWIDTH 1275 0
DWIDTH 17 0
BBX 14 13 0 -3
BITMAP
F03C
F03C
F03C
F03C
F03C
F03C
F03C
1CE0
1CE0
1CE0
0780
0780
0780
ENDCHAR
STARTCHAR C0119-w
ENCODING 119
SWIDTH 1275 0
DWIDTH 17 0
BBX 14 13 0 -3
BITMAP
F03C
F03C
F7BC
F7BC
F7BC
F7BC
F7BC
F7BC
F7BC
F7BC
1FE0
1FE0
1FE0
ENDCHAR
STARTCHAR C0120-x
ENCODING 120
SWIDTH 1275 0
DWIDTH 17 0
BBX 14 13 0 -3
BITMAP
F03C
F03C
1CE0
1CE0
1CE0
0780
0780
1CE0
1CE0
1CE0
F03C
F03C
F03C
ENDCHAR
STARTCHAR C0121-y
ENCODING 121
SWIDTH 1275 0
DWIDTH 17 0
BBX 14 13 0 -3
BITMAP
F03C
F03C
F03C
F03C
F03C
1FE0
1FE0
0780
0780
0780
0780
0780
0780
ENDCHAR
STARTCHAR C0122-z
ENCODING 122
SWIDTH 1275 0
DWIDTH 17 0
BBX 14 13 0 -3
BITMAP
FFFC
FFFC
00E0
00E0
00E0
0780
0780
1C00
1C00
1C00
FFFC
FFFC
FFFC
ENDCHAR
STARTCHAR C0123-{
ENCODING 123
SWIDTH 1275 0
DWIDTH 17 0
BBX 11 13 0 -3
BITMAP
1FE0
1FE0
1C00
1C00
1C00
FC00
FC00
1C00
1C00
1C00
1FE0
1FE0
1FE0
ENDCHAR
STARTCHAR C0124-|
ENCODING 124
SWIDTH 1275 0
DWIDTH 17 0
BBX 4 13 5 -3
BITMAP
F0
F0
F0
F0
F0
F0
F0
F0
F0
F0
F0
F0
F0
ENDCHAR
STARTCHAR C0125-}
ENCODING 125
SWIDTH 1275 0
DWIDTH 17 0
BBX 11 13 3 -3
BITMAP
FF00
FF00
0700
0700
0700
07E0
07E0
0700
0700
0700
FF00
FF00
FF00
ENDCHAR
STARTCHAR C0126-~
ENCODING 126
SWIDTH 1275 0
DWIDTH 17 0
BBX 14 8 0 0
BITMAP
1C00
1C00
1C00
F7BC
F7BC
00E0
00E0
00E0
ENDCHAR
STARTCHAR C0127
ENCODING 127
SWIDTH 1275 0
DWIDTH 17 0
BBX 14 13 0 -3
BITMAP
FFFC
FFFC
FFFC
FFFC
FFFC
FFFC
FFFC
FFFC
FFFC
FFFC
FFFC
FFFC
FFFC
ENDCHAR
STARTCHAR C0128
ENCODING 128
SWIDTH 1275 0
DWIDTH 17 0
BBX 14 13 0 -3
BITMAP
07E0
07E0
1C3C
1C3C
1C3C
FF80
FF80
1C3C
1C3C
1C3C
07E0
07E0
07E0
ENDCHAR
STARTCHAR C0129
ENCODING 129
SWIDTH 1275 0
DWIDTH 17 0
BBX 14 13 0 -3
BITMAP
FFFC
FFFC
FFFC
FFFC
FFFC
FFFC
FFFC
FFFC
FFFC
FFFC
FFFC
FFFC
FFFC
ENDCHAR
STARTCHAR C0130
ENCODING 130
SWIDTH 1275 0
DWIDTH 17 0
BBX 4 6 5 -3
BITMAP
F0
F0
F0
F0
F0
F0
ENDCHAR
STARTCHAR C0131
ENCODING 131
SWIDTH 1275 0
DWIDTH 17 0
BBX 14 13 0 -3
BITMAP
1FFC
1FFC
1C00
1C00
1C00
1FE0
1FE0
1C00
1C00
1C00
FC00
FC00
FC00
ENDCHAR
STARTCHAR C0132
ENCODING 132
SWIDTH 1275 0
DWIDTH 17 0
BBX 8 6 3 -3
BITMAP
E7
E7
E7
E7
E7
E7
ENDCHAR
STARTCHAR C0133
ENCODING 133
SWIDTH 1275 0
DWIDTH 17 0
BBX 14 3 0 -3
BITMAP
F7BC
F7BC
F7BC
ENDCHAR
STARTCHAR C0134
ENCODING 134
SWIDTH 1275 0
DWIDTH 17 0
BBX 8 13 3 -3
BITMAP
3C
3C
FF
FF
FF
3C
3C
3C
3C
3C
3C
3C
3C
ENDCHAR
STARTCHAR C0135
ENCODING 135
SWIDTH 1275 0
DWIDTH 17 0
BBX 8 13 3 -3
BITMAP
3C
3C
FF
FF
FF
3C
3C
FF
FF
FF
3C
3C
3C
ENDCHAR
STARTCHAR C0136
ENCODING 136
SWIDTH 1275 0
DWIDTH 17 0
BBX 14 13 0 -3
BITMAP
FFFC
FFFC
FFFC
FFFC
FFFC
FFFC
FFFC
FFFC
FFFC
FFFC
FFFC
FFFC
FFFC
ENDCHAR
STARTCHAR C0137
ENCODING 137
SWIDTH 1275 0
DWIDTH 17 0
BBX 14 13 0 -3
BITMAP
F03C
F03C
00E0
00E0
00E0
0780
0780
1C3C
1C3C
1C3C
F0E0
F0E0
F0E0
ENDCHAR
STARTCHAR C0138
ENCODING 138
SWIDTH 1275 0
DWIDTH 17 0
BBX 14 13 0 -3
BITMAP
1CE0
1CE0
0780
0780
0780
07FC
07FC
0780
0780
0780
FF80
FF80
FF80
ENDCHAR
STARTCHAR C0139
ENCODING 139
SWIDTH 1275 0
DWIDTH 17 0
BBX 8 13 3 -3
BITMAP
07
07
3C
3C
3C
E0
E0
3C
3C
3C
07
07
07
ENDCHAR
STARTCHAR C0140
ENCODING 140
SWIDTH 1275 0
DWIDTH 17 0
BBX 14 13 0 -3
BITMAP
1FFC
1FFC
F780
F780
F780
F7FC
F7FC
F780
F780
F780
1FFC
1FFC
1FFC
ENDCHAR
STARTCHAR C0141
ENCODING 141
SWIDTH 1275 0
DWIDTH 17 0
BBX 14 13 0 -3
BITMAP
FFFC
FFFC
FFFC
FFFC
FFFC
FFFC
FFFC
FFFC
FFFC
FFFC
FFFC
FFFC
FFFC
ENDCHAR
STARTCHAR C0142
ENCODING 142
SWIDTH 1275 0
DWIDTH 17 0
BBX 14 13 0 -3
BITMAP
1CE0
1CE0
0780
0780
0780
FF80
FF80
0780
0780
0780
07FC
07FC
07FC
ENDCHAR
STARTCHAR C0143
ENCODING 143
SWIDTH 1275 0
DWIDTH 17 0
BBX 14 13 0 -3
BITMAP
FFFC
FFFC
FFFC
FFFC
FFFC
FFFC
FFFC
FFFC
FFFC
FFFC
FFFC
FFFC
FFFC
ENDCHAR
STARTCHAR C0144
ENCODING 144
SWIDTH 1275 0
DWIDTH 17 0
BBX 14 13 0 -3
BITMAP
FFFC
FFFC
FFFC
FFFC
FFFC
FFFC
FFFC
FFFC
FFFC
FFFC
FFFC
FFFC
FFFC
ENDCHAR
STARTCHAR C0145
ENCODING 145
SWIDTH 1275 0
DWIDTH 17 0
BBX 4 5 5 5
BITMAP
F0
F0
F0
F0
F0
ENDCHAR
STARTCHAR C0146
ENCODING 146
SWIDTH 1275 0
DWIDTH 17 0
BBX 4 5 5 5
BITMAP
F0
F0
F0
F0
F0
ENDCHAR
STARTCHAR C0147
ENCODING 147
SWIDTH 1275 0
DWIDTH 17 0
BBX 8 5 3 5
BITMAP
E7
E7
E7
E7
E7
ENDCHAR
STARTCHAR C0148
ENCODING 148
SWIDTH 1275 0
DWIDTH 17 0
BBX 8 5 3 5
BITMAP
E7
E7
E7
E7
E7
ENDCHAR
STARTCHAR C0149
ENCODING 149
SWIDTH 1275 0
DWIDTH 17 0
BBX 8 8 3 0
BITMAP
FF
FF
FF
FF
FF
FF
FF
FF
ENDCHAR
STARTCHAR C0150
ENCODING 150
SWIDTH 1275 0
DWIDTH 17 0
BBX 14 2 0 3
BITMAP
FFFC
FFFC
ENDCHAR
STARTCHAR C0151
ENCODING 151
SWIDTH 1275 0
DWIDTH 17 0
BBX 14 2 0 3
BITMAP
FFFC
FFFC
ENDCHAR
STARTCHAR C0152
ENCODING 152
SWIDTH 1275 0
DWIDTH 17 0
BBX 14 13 0 -3
BITMAP
FFFC
FFFC
FFFC
FFFC
FFFC
FFFC
FFFC
FFFC
FFFC
FFFC
FFFC
FFFC
FFFC
ENDCHAR
STARTCHAR C0153
ENCODING 153
SWIDTH 1275 0
DWIDTH 17 0
BBX 8 13 3 -3
BITMAP
FF
FF
3C
3C
3C
00
00
FF
FF
FF
E7
E7
E7
ENDCHAR
STARTCHAR C0154
ENCODING 154
SWIDTH 1275 0
DWIDTH 17 0
BBX 14 13 0 -3
BITMAP
1CE0
1CE0
0780
0780
0780
07FC
07FC
0780
0780
0780
FF80
FF80
FF80
ENDCHAR
STARTCHAR C0155
ENCODING 155
SWIDTH 1275 0
DWIDTH 17 0
BBX 8 13 3 -3
BITMAP
E0
E0
3C
3C
3C
07
07
3C
3C
3C
E0
E0
E0
ENDCHAR
STARTCHAR C0156
ENCODING 156
SWIDTH 1275 0
DWIDTH 17 0
BBX 14 13 0 -3
BITMAP
1FFC
1FFC
F780
F780
F780
F7FC
F7FC
F780
F780
F780
1FFC
1FFC
1FFC
ENDCHAR
STARTCHAR C0157
ENCODING 157
SWIDTH 1275 0
DWIDTH 17 0
BBX 14 13 0 -3
BITMAP
FFFC
FFFC
FFFC
FFFC
FFFC
FFFC
FFFC
FFFC
FFFC
FFFC
FFFC
FFFC
FFFC
ENDCHAR
STARTCHAR C0158
ENCODING 158
SWIDTH 1275 0
DWIDTH 17 0
BBX 14 13 0 -3
BITMAP
1CE0
1CE0
0780
0780
0780
FF80
FF80
0780
0780
0780
07FC
07FC
07FC
ENDCHAR
STARTCHAR C0159
ENCODING 159
SWIDTH 1275 0
DWIDTH 17 0
BBX 14 13 0 -3
BITMAP
1CE0
1CE0
0000
0000
0000
F03C
F03C
FFFC
FFFC
FFFC
0780
0780
0780
ENDCHAR
STARTCHAR C0160
ENCODING 160
SWIDTH 1275 0
DWIDTH 17 0
BBX 1 1 0 -1
BITMAP
00
ENDCHAR
STARTCHAR C0161
ENCODING 161
SWIDTH 1275 0
DWIDTH 17 0
BBX 4 13 5 -3
BITMAP
F0
F0
00
00
00
F0
F0
F0
F0
F0
F0
F0
F0
ENDCHAR
STARTCHAR C0162
ENCODING 162
SWIDTH 1275 0
DWIDTH 17 0
BBX 8 13 3 -3
BITMAP
3C
3C
FF
FF
FF
E0
E0
FF
FF
FF
3C
3C
3C
ENDCHAR
STARTCHAR C0163
ENCODING 163
SWIDTH 1275 0
DWIDTH 17 0
BBX 14 13 0 -3
BITMAP
07E0
07E0
1C00
1C00
1C00
FF80
FF80
1C00
1C00
1C00
FFFC
FFFC
FFFC
ENDCHAR
STARTCHAR C0164
ENCODING 164
SWIDTH 1275 0
DWIDTH 17 0
BBX 14 13 0 -3
BITMAP
F03C
F03C
1FE0
1FE0
1FE0
1CE0
1CE0
1FE0
1FE0
1FE0
F03C
F03C
F03C
ENDCHAR
STARTCHAR C0165
ENCODING 165
SWIDTH 1275 0
DWIDTH 17 0
BBX 14 13 0 -3
BITMAP
F03C
F03C
1FE0
1FE0
1FE0
0780
0780
1FE0
1FE0
1FE0
0780
0780
0780
ENDCHAR
STARTCHAR C0166
ENCODING 166
SWIDTH 1275 0
DWIDTH 17 0
BBX 4 13 5 -3
BITMAP
F0
F0
F0
F0
F0
00
00
F0
F0
F0
F0
F0
F0
ENDCHAR
STARTCHAR C0167
ENCODING 167
SWIDTH 1275 0
DWIDTH 17 0
BBX 14 13 0 -3
BITMAP
1FE0
1FE0
F000
F000
F000
1FE0
1FE0
003C
003C
003C
1FE0
1FE0
1FE0
ENDCHAR
STARTCHAR C0168
ENCODING 168
SWIDTH 1275 0
DWIDTH 17 0
BBX 8 2 3 8
BITMAP
E7
E7
ENDCHAR
STARTCHAR C0169
ENCODING 169
SWIDTH 1275 0
DWIDTH 17 0
BBX 8 8 3 0
BITMAP
3F
3F
3F
E0
E0
3F
3F
3F
ENDCHAR
STARTCHAR C0170
ENCODING 170
SWIDTH 1275 0
DWIDTH 17 0
BBX 14 13 0 -3
BITMAP
FFFC
FFFC
FFFC
FFFC
FFFC
FFFC
FFFC
FFFC
FFFC
FFFC
FFFC
FFFC
FFFC
ENDCHAR
STARTCHAR C0171
ENCODING 171
SWIDTH 1275 0
DWIDTH 17 0
BBX 14 8 0 0
BITMAP
1C3C
1C3C
1C3C
F0E0
F0E0
1C3C
1C3C
1C3C
ENDCHAR
STARTCHAR C0172
ENCODING 172
SWIDTH 1275 0
DWIDTH 17 0
BBX 11 5 3 0
BITMAP
FFE0
FFE0
01E0
01E0
01E0
ENDCHAR
STARTCHAR C0173
ENCODING 173
SWIDTH 1275 0
DWIDTH 17 0
BBX 14 2 0 3
BITMAP
FFFC
FFFC
ENDCHAR
STARTCHAR C0174
ENCODING 174
SWIDTH 1275 0
DWIDTH 17 0
BBX 8 8 3 0
BITMAP
FC
FC
FC
FC
FC
E7
E7
E7
ENDCHAR
STARTCHAR C0175
ENCODING 175
SWIDTH 1275 0
DWIDTH 17 0
BBX 8 2 3 8
BITMAP
FF
FF
ENDCHAR
STARTCHAR C0176
ENCODING 176
SWIDTH 1275 0
DWIDTH 17 0
BBX 8 7 3 3
BITMAP
3C
3C
E7
E7
E7
3C
3C
ENDCHAR
STARTCHAR C0177
ENCODING 177
SWIDTH 1275 0
DWIDTH 17 0
BBX 14 13 0 -3
BITMAP
0780
0780
FFFC
FFFC
FFFC
0780
0780
0000
0000
0000
FFFC
FFFC
FFFC
ENDCHAR
STARTCHAR C0178
ENCODING 178
SWIDTH 1275 0
DWIDTH 17 0
BBX 14 13 0 -3
BITMAP
FFFC
FFFC
FFFC
FFFC
FFFC
FFFC
FFFC
FFFC
FFFC
FFFC
FFFC
FFFC
FFFC
ENDCHAR
STARTCHAR C0179
ENCODING 179
SWIDTH 1275 0
DWIDTH 17 0
BBX 14 13 0 -3
BITMAP
FFFC
FFFC
FFFC
FFFC
FFFC
FFFC
FFFC
FFFC
FFFC
FFFC
FFFC
FFFC
FFFC
ENDCHAR
STARTCHAR C0180
ENCODING 180
SWIDTH 1275 0
DWIDTH 17 0
BBX 6 5 3 5
BITMAP
3C
3C
E0
E0
E0
ENDCHAR
STARTCHAR C0181
ENCODING 181
SWIDTH 1275 0
DWIDTH 17 0
BBX 14 13 0 -3
BITMAP
F03C
F03C
F03C
F03C
F03C
FC3C
FC3C
F7E0
F7E0
F7E0
F000
F000
F000
ENDCHAR
STARTCHAR C0182
ENCODING 182
SWIDTH 1275 0
DWIDTH 17 0
BBX 14 13 0 -3
BITMAP
1FFC
1FFC
FFBC
FFBC
FFBC
1FBC
1FBC
07BC
07BC
07BC
07BC
07BC
07BC
ENDCHAR
STARTCHAR C0183
ENCODING 183
SWIDTH 1275 0
DWIDTH 17 0
BBX 4 2 5 3
BITMAP
F0
F0
ENDCHAR
STARTCHAR C0184
ENCODING 184
SWIDTH 1275 0
DWIDTH 17 0
BBX 14 13 0 -3
BITMAP
FFFC
FFFC
FFFC
FFFC
FFFC
FFFC
FFFC
FFFC
FFFC
FFFC
FFFC
FFFC
FFFC
ENDCHAR
STARTCHAR C0185
ENCODING 185
SWIDTH 1275 0
DWIDTH 17 0
BBX 8 7 3 3
BITMAP
FC
FC
3C
3C
3C
FF
FF
ENDCHAR
STARTCHAR C0186
ENCODING 186
SWIDTH 1275 0
DWIDTH 17 0
BBX 8 7 3 3
BITMAP
FF
FF
E7
E7
E7
FF
FF
ENDCHAR
STARTCHAR C0187
ENCODING 187
SWIDTH 1275 0
DWIDTH 17 0
BBX 14 8 0 0
BITMAP
F0E0
F0E0
F0E0
1C3C
1C3C
F0E0
F0E0
F0E0
ENDCHAR
STARTCHAR C0188
ENCODING 188
SWIDTH 1275 0
DWIDTH 17 0
BBX 14 13 0 -3
BITMAP
FFFC
FFFC
FFFC
FFFC
FFFC
FFFC
FFFC
FFFC
FFFC
FFFC
FFFC
FFFC
FFFC
ENDCHAR
STARTCHAR C0189
ENCODING 189
SWIDTH 1275 0
DWIDTH 17 0
BBX 14 13 0 -3
BITMAP
FFFC
FFFC
FFFC
FFFC
FFFC
FFFC
FFFC
FFFC
FFFC
FFFC
FFFC
FFFC
FFFC
ENDCHAR
STARTCHAR C0190
ENCODING 190
SWIDTH 1275 0
DWIDTH 17 0
BBX 14 13 0 -3
BITMAP
FFFC
FFFC
FFFC
FFFC
FFFC
FFFC
FFFC
FFFC
FFFC
FFFC
FFFC
FFFC
FFFC
ENDCHAR
STARTCHAR C0191
ENCODING 191
SWIDTH 1275 0
DWIDTH 17 0
BBX 8 13 3 -3
BITMAP
3C
3C
00
00
00
3C
3C
E0
E0
E0
FF
FF
FF
ENDCHAR
STARTCHAR C0192
ENCODING 192
SWIDTH 1275 0
DWIDTH 17 0
BBX 14 13 0 -3
BITMAP
1C00
1C00
0780
0780
0780
1CE0
1CE0
FFFC
FFFC
FFFC
F03C
F03C
F03C
ENDCHAR
STARTCHAR C0193
ENCODING 193
SWIDTH 1275 0
DWIDTH 17 0
BBX 14 13 0 -3
BITMAP
00E0
00E0
0780
0780
0780
1CE0
1CE0
FFFC
FFFC
FFFC
F03C
F03C
F03C
ENDCHAR
STARTCHAR C0194
ENCODING 194
SWIDTH 1275 0
DWIDTH 17 0
BBX 14 13 0 -3
BITMAP
FFFC
FFFC
FFFC
FFFC
FFFC
FFFC
FFFC
FFFC
FFFC
FFFC
FFFC
FFFC
FFFC
ENDCHAR
STARTCHAR C0195
ENCODING 195
SWIDTH 1275 0
DWIDTH 17 0
BBX 14 13 0 -3
BITMAP
1FE0
1FE0
0780
0780
0780
1CE0
1CE0
FFFC
FFFC
FFFC
F03C
F03C
F03C
ENDCHAR
STARTCHAR C0196
ENCODING 196
SWIDTH 1275 0
DWIDTH 17 0
BBX 14 13 0 -3
BITMAP
F03C
F03C
0780
0780
0780
1CE0
1CE0
FFFC
FFFC
FFFC
F03C
F03C
F03C
ENDCHAR
STARTCHAR C0197
ENCODING 197
SWIDTH 1275 0
DWIDTH 17 0
BBX 14 13 0 -3
BITMAP
1FE0
1FE0
1FE0
1FE0
1FE0
1CE0
1CE0
FFFC
FFFC
FFFC
F03C
F03C
F03C
ENDCHAR
STARTCHAR C0198
ENCODING 198
SWIDTH 1275 0
DWIDTH 17 0
BBX 14 13 0 -3
BITMAP
1FFC
1FFC
F780
F780
F780
F7FC
F7FC
FF80
FF80
FF80
F7FC
F7FC
F7FC
ENDCHAR
STARTCHAR C0199
ENCODING 199
SWIDTH 1275 0
DWIDTH 17 0
BBX 14 13 0 -3
BITMAP
1FFC
1FFC
F000
F000
F000
F000
F000
1FFC
1FFC
1FFC
0780
0780
0780
ENDCHAR
STARTCHAR C0200
ENCODING 200
SWIDTH 1275 0
DWIDTH 17 0
BBX 11 13 3 -3
BITMAP
E000
E000
3C00
3C00
3C00
FC00
FC00
FF00
FF00
FF00
FFE0
FFE0
FFE0
ENDCHAR
STARTCHAR C0201
ENCODING 201
SWIDTH 1275 0
DWIDTH 17 0
BBX 11 13 3 -3
BITMAP
0700
0700
3C00
3C00
3C00
FC00
FC00
FF00
FF00
FF00
FFE0
FFE0
FFE0
ENDCHAR
STARTCHAR C0202
ENCODING 202
SWIDTH 1275 0
DWIDTH 17 0
BBX 14 13 0 -3
BITMAP
FFFC
FFFC
FFFC
FFFC
FFFC
FFFC
FFFC
FFFC
FFFC
FFFC
FFFC
FFFC
FFFC
ENDCHAR
STARTCHAR C0203
ENCODING 203
SWIDTH 1275 0
DWIDTH 17 0
BBX 11 13 3 -3
BITMAP
E700
E700
0000
0000
0000
FC00
FC00
FF00
FF00
FF00
FFE0
FFE0
FFE0
ENDCHAR
STARTCHAR C0204
ENCODING 204
SWIDTH 1275 0
DWIDTH 17 0
BBX 14 13 0 -3
BITMAP
1C00
1C00
0780
0780
0780
FFFC
FFFC
0780
0780
0780
FFFC
FFFC
FFFC
ENDCHAR
STARTCHAR C0205
ENCODING 205
SWIDTH 1275 0
DWIDTH 17 0
BBX 14 13 0 -3
BITMAP
00E0
00E0
0780
0780
0780
FFFC
FFFC
0780
0780
0780
FFFC
FFFC
FFFC
ENDCHAR
STARTCHAR C0206
ENCODING 206
SWIDTH 1275 0
DWIDTH 17 0
BBX 14 13 0 -3
BITMAP
FFFC
FFFC
FFFC
FFFC
FFFC
FFFC
FFFC
FFFC
FFFC
FFFC
FFFC
FFFC
FFFC
ENDCHAR
STARTCHAR C0207
ENCODING 207
SWIDTH 1275 0
DWIDTH 17 0
BBX 14 13 0 -3
BITMAP
1CE0
1CE0
0000
0000
0000
FFFC
FFFC
0780
0780
0780
FFFC
FFFC
FFFC
ENDCHAR
STARTCHAR C0208
ENCODING 208
SWIDTH 1275 0
DWIDTH 17 0
BBX 14 13 0 -3
BITMAP
1FE0
1FE0
1C3C
1C3C
1C3C
FFBC
FFBC
1C3C
1C3C
1C3C
1FE0
1FE0
1FE0
ENDCHAR
STARTCHAR C0209
ENCODING 209
SWIDTH 1275 0
DWIDTH 17 0
BBX 14 13 0 -3
BITMAP
1FE0
1FE0
0000
0000
0000
FC3C
FC3C
F7BC
F7BC
F7BC
F0FC
F0FC
F0FC
ENDCHAR
STARTCHAR C0210
ENCODING 210
SWIDTH 1275 0
DWIDTH 17 0
BBX 14 13 0 -3
BITMAP
1C00
1C00
0780
0780
0780
1FE0
1FE0
F03C
F03C
F03C
1FE0
1FE0
1FE0
ENDCHAR
STARTCHAR C0211
ENCODING 211
SWIDTH 1275 0
DWIDTH 17 0
BBX 14 13 0 -3
BITMAP
00E0
00E0
0780
0780
0780
1FE0
1FE0
F03C
F03C
F03C
1FE0
1FE0
1FE0
ENDCHAR
STARTCHAR C0212
ENCODING 212
SWIDTH 1275 0
DWIDTH 17 0
BBX 14 13 0 -3
BITMAP
FFFC
FFFC
FFFC
FFFC
FFFC
FFFC
FFFC
FFFC
FFFC
FFFC
FFFC
FFFC
FFFC
ENDCHAR
STARTCHAR C0213
ENCODING 213
SWIDTH 1275 0
DWIDTH 17 0
BBX 14 13 0 -3
BITMAP
1FE0
1FE0
0000
0000
0000
1FE0
1FE0
F03C
F03C
F03C
1FE0
1FE0
1FE0
ENDCHAR
STARTCHAR C0214
ENCODING 214
SWIDTH 1275 0
DWIDTH 17 0
BBX 14 13 0 -3
BITMAP
1CE0
1CE0
0000
0000
0000
1FE0
1FE0
F03C
F03C
F03C
1FE0
1FE0
1FE0
ENDCHAR
STARTCHAR C0215
ENCODING 215
SWIDTH 1275 0
DWIDTH 17 0
BBX 8 8 3 0
BITMAP
E7
E7
E7
3C
3C
E7
E7
E7
ENDCHAR
STARTCHAR C0216
ENCODING 216
SWIDTH 1275 0
DWIDTH 17 0
BBX 14 13 0 -3
BITMAP
1FE0
1FE0
F0FC
F0FC
F0FC
F7BC
F7BC
FC3C
FC3C
FC3C
1FE0
1FE0
1FE0
ENDCHAR
STARTCHAR C0217
ENCODING 217
SWIDTH 1275 0
DWIDTH 17 0
BBX 14 13 0 -3
BITMAP
1C00
1C00
0780
0780
0780
F03C
F03C
F03C
F03C
F03C
1FE0
1FE0
1FE0
ENDCHAR
STARTCHAR C0218
ENCODING 218
SWIDTH 1275 0
DWIDTH 17 0
BBX 14 13 0 -3
BITMAP
00E0
00E0
0780
0780
0780
F03C
F03C
F03C
F03C
F03C
1FE0
1FE0
1FE0
ENDCHAR
STARTCHAR C0219
ENCODING 219
SWIDTH 1275 0
DWIDTH 17 0
BBX 14 13 0 -3
BITMAP
FFFC
FFFC
FFFC
FFFC
FFFC
FFFC
FFFC
FFFC
FFFC
FFFC
FFFC
FFFC
FFFC
ENDCHAR
STARTCHAR C0220
ENCODING 220
SWIDTH 1275 0
DWIDTH 17 0
BBX 14 13 0 -3
BITMAP
1CE0
1CE0
0000
0000
0000
F03C
F03C
F03C
F03C
F03C
1FE0
1FE0
1FE0
ENDCHAR
STARTCHAR C0221
ENCODING 221
SWIDTH 1275 0
DWIDTH 17 0
BBX 14 13 0 -3
BITMAP
FFFC
FFFC
FFFC
FFFC
FFFC
FFFC
FFFC
FFFC
FFFC
FFFC
FFFC
FFFC
FFFC
ENDCHAR
STARTCHAR C0222
ENCODING 222
SWIDTH 1275 0
DWIDTH 17 0
BBX 14 13 0 -3
BITMAP
F000
F000
FFE0
FFE0
FFE0
F03C
F03C
FFE0
FFE0
FFE0
F000
F000
F000
ENDCHAR
STARTCHAR C0223
ENCODING 223
SWIDTH 1275 0
DWIDTH 17 0
BBX 14 13 0 -3
BITMAP
1FE0
1FE0
F03C
F03C
F03C
F0E0
F0E0
F03C
F03C
F03C
F7E0
F7E0
F7E0
ENDCHAR
STARTCHAR C0224
ENCODING 224
SWIDTH 1275 0
DWIDTH 17 0
BBX 14 13 0 -3
BITMAP
1C00
1C00
0780
0780
0780
1CE0
1CE0
FFFC
FFFC
FFFC
F03C
F03C
F03C
ENDCHAR
STARTCHAR C0225
ENCODING 225
SWIDTH 1275 0
DWIDTH 17 0
BBX 14 13 0 -3
BITMAP
00E0
00E0
0780
0780
0780
1CE0
1CE0
FFFC
FFFC
FFFC
F03C
F03C
F03C
ENDCHAR
STARTCHAR C0226
ENCODING 226
SWIDTH 1275 0
DWIDTH 17 0
BBX 14 13 0 -3
BITMAP
FFFC
FFFC
FFFC
FFFC
FFFC
FFFC
FFFC
FFFC
FFFC
FFFC
FFFC
FFFC
FFFC
ENDCHAR
STARTCHAR C0227
ENCODING 227
SWIDTH 1275 0
DWIDTH 17 0
BBX 14 13 0 -3
BITMAP
1FE0
1FE0
0780
0780
0780
1CE0
1CE0
FFFC
FFFC
FFFC
F03C
F03C
F03C
ENDCHAR
STARTCHAR C0228
ENCODING 228
SWIDTH 1275 0
DWIDTH 17 0
BBX 14 13 0 -3
BITMAP
F03C
F03C
0780
0780
0780
1CE0
1CE0
FFFC
FFFC
FFFC
F03C
F03C
F03C
ENDCHAR
STARTCHAR C0229
ENCODING 229
SWIDTH 1275 0
DWIDTH 17 0
BBX 14 13 0 -3
BITMAP
1FE0
1FE0
1FE0
1FE0
1FE0
1CE0
1CE0
FFFC
FFFC
FFFC
F03C
F03C
F03C
ENDCHAR
STARTCHAR C0230
ENCODING 230
SWIDTH 1275 0
DWIDTH 17 0
BBX 14 13 0 -3
BITMAP
1FFC
1FFC
F780
F780
F780
F7FC
F7FC
FF80
FF80
FF80
F7FC
F7FC
F7FC
ENDCHAR
STARTCHAR C0231
ENCODING 231
SWIDTH 1275 0
DWIDTH 17 0
BBX 14 13 0 -3
BITMAP
1FFC
1FFC
F000
F000
F000
F000
F000
1FFC
1FFC
1FFC
0780
0780
0780
ENDCHAR
STARTCHAR C0232
ENCODING 232
SWIDTH 1275 0
DWIDTH 17 0
BBX 11 13 3 -3
BITMAP
E000
E000
3C00
3C00
3C00
FC00
FC00
FF00
FF00
FF00
FFE0
FFE0
FFE0
ENDCHAR
STARTCHAR C0233
ENCODING 233
SWIDTH 1275 0
DWIDTH 17 0
BBX 11 13 3 -3
BITMAP
0700
0700
3C00
3C00
3C00
FC00
FC00
FF00
FF00
FF00
FFE0
FFE0
FFE0
ENDCHAR
STARTCHAR C0234
ENCODING 234
SWIDTH 1275 0
DWIDTH 17 0
BBX 14 13 0 -3
BITMAP
FFFC
FFFC
FFFC
FFFC
FFFC
FFFC
FFFC
FFFC
FFFC
FFFC
FFFC
FFFC
FFFC
ENDCHAR
STARTCHAR C0235
ENCODING 235
SWIDTH 1275 0
DWIDTH 17 0
BBX 11 13 3 -3
BITMAP
E700
E700
0000
0000
0000
FC00
FC00
FF00
FF00
FF00
FFE0
FFE0
FFE0
ENDCHAR
STARTCHAR C0236
ENCODING 236
SWIDTH 1275 0
DWIDTH 17 0
BBX 14 13 0 -3
BITMAP
1C00
1C00
0780
0780
0780
FFFC
FFFC
0780
0780
0780
FFFC
FFFC
FFFC
ENDCHAR
STARTCHAR C0237
ENCODING 237
SWIDTH 1275 0
DWIDTH 17 0
BBX 14 13 0 -3
BITMAP
00E0
00E0
0780
0780
0780
FFFC
FFFC
0780
0780
0780
FFFC
FFFC
FFFC
ENDCHAR
STARTCHAR C0238
ENCODING 238
SWIDTH 1275 0
DWIDTH 17 0
BBX 14 13 0 -3
BITMAP
FFFC
FFFC
FFFC
FFFC
FFFC
FFFC
FFFC
FFFC
FFFC
FFFC
FFFC
FFFC
FFFC
ENDCHAR
STARTCHAR C0239
ENCODING 239
SWIDTH 1275 0
DWIDTH 17 0
BBX 14 13 0 -3
BITMAP
1CE0
1CE0
0000
0000
0000
FFFC
FFFC
0780
0780
0780
FFFC
FFFC
FFFC
ENDCHAR
STARTCHAR C0240
ENCODING 240
SWIDTH 1275 0
DWIDTH 17 0
BBX 14 13 0 -3
BITMAP
1FE0
1FE0
1C3C
1C3C
1C3C
FFBC
FFBC
1C3C
1C3C
1C3C
1FE0
1FE0
1FE0
ENDCHAR
STARTCHAR C0241
ENCODING 241
SWIDTH 1275 0
DWIDTH 17 0
BBX 14 13 0 -3
BITMAP
1FE0
1FE0
0000
0000
0000
FC3C
FC3C
F7BC
F7BC
F7BC
F0FC
F0FC
F0FC
ENDCHAR
STARTCHAR C0242
ENCODING 242
SWIDTH 1275 0
DWIDTH 17 0
BBX 14 13 0 -3
BITMAP
1C00
1C00
0780
0780
0780
1FE0
1FE0
F03C
F03C
F03C
1FE0
1FE0
1FE0
ENDCHAR
STARTCHAR C0243
ENCODING 243
SWIDTH 1275 0
DWIDTH 17 0
BBX 14 13 0 -3
BITMAP
00E0
00E0
0780
0780
0780
1FE0
1FE0
F03C
F03C
F03C
1FE0
1FE0
1FE0
ENDCHAR
STARTCHAR C0244
ENCODING 244
SWIDTH 1275 0
DWIDTH 17 0
BBX 14 13 0 -3
BITMAP
FFFC
FFFC
FFFC
FFFC
FFFC
FFFC
FFFC
FFFC
FFFC
FFFC
FFFC
FFFC
FFFC
ENDCHAR
STARTCHAR C0245
ENCODING 245
SWIDTH 1275 0
DWIDTH 17 0
BBX 14 13 0 -3
BITMAP
1FE0
1FE0
0000
0000
0000
1FE0
1FE0
F03C
F03C
F03C
1FE0
1FE0
1FE0
ENDCHAR
STARTCHAR C0246
ENCODING 246
SWIDTH 1275 0
DWIDTH 17 0
BBX 14 13 0 -3
BITMAP
1CE0
1CE0
0000
0000
0000
1FE0
1FE0
F03C
F03C
F03C
1FE0
1FE0
1FE0
ENDCHAR
STARTCHAR C0247
ENCODING 247
SWIDTH 1275 0
DWIDTH 17 0
BBX 14 13 0 -3
BITMAP
0780
0780
0000
0000
0000
FFFC
FFFC
0000
0000
0000
0780
0780
0780
ENDCHAR
STARTCHAR C0248
ENCODING 248
SWIDTH 1275 0
DWIDTH 17 0
BBX 14 13 0 -3
BITMAP
1FE0
1FE0
F0FC
F0FC
F0FC
F7BC
F7BC
FC3C
FC3C
FC3C
1FE0
1FE0
1FE0
ENDCHAR
STARTCHAR C0249
ENCODING 249
SWIDTH 1275 0
DWIDTH 17 0
BBX 14 13 0 -3
BITMAP
1C00
1C00
0780
0780
0780
F03C
F03C
F03C
F03C
F03C
1FE0
1FE0
1FE0
ENDCHAR
STARTCHAR C0250
ENCODING 250
SWIDTH 1275 0
DWIDTH 17 0
BBX 14 13 0 -3
BITMAP
00E0
00E0
0780
0780
0780
F03C
F03C
F03C
F03C
F03C
1FE0
1FE0
1FE0
ENDCHAR
STARTCHAR C0251
ENCODING 251
SWIDTH 1275 0
DWIDTH 17 0
BBX 14 13 0 -3
BITMAP
FFFC
FFFC
FFFC
FFFC
FFFC
FFFC
FFFC
FFFC
FFFC
FFFC
FFFC
FFFC
FFFC
ENDCHAR
STARTCHAR C0252
ENCODING 252
SWIDTH 1275 0
DWIDTH 17 0
BBX 14 13 0 -3
BITMAP
1CE0
1CE0
0000
0000
0000
F03C
F03C
F03C
F03C
F03C
1FE0
1FE0
1FE0
ENDCHAR
STARTCHAR C0253
ENCODING 253
SWIDTH 1275 0
DWIDTH 17 0
BBX 14 13 0 -3
BITMAP
FFFC
FFFC
FFFC
FFFC
FFFC
FFFC
FFFC
FFFC
FFFC
FFFC
FFFC
FFFC
FFFC
ENDCHAR
STARTCHAR C0254
ENCODING 254
SWIDTH 1275 0
DWIDTH 17 0
BBX 14 13 0 -3
BITMAP
F000
F000
FFE0
FFE0
FFE0
F03C
F03C
FFE0
FFE0
FFE0
F000
F000
F000
ENDCHAR
STARTCHAR C0255
ENCODING 255
SWIDTH 1275 0
DWIDTH 17 0
BBX 14 13 0 -3
BITMAP
1CE0
1CE0
0000
0000
0000
F03C
F03C
FFFC
FFFC
FFFC
0780
0780
0780
ENDCHAR
ENDFONT

