STARTFONT 2.1
FONT -FontForge-VHS Gothic-Book-R-Normal--10-100-75-75-P-79-ISO10646-1
SIZE 10 75 75
FONTBOUNDINGBOX 8 11 0 -1
COMMENT "Generated by fontforge, http://fontforge.sourceforge.net"
COMMENT "Copyright Spottie Leonard 2023"
COMMENT ""CHARGEN '92" by "ParadigmTheGreat" (https://fontstruct.com/fontstructors/show/1622437/paradigmthegreat)"
STARTPROPERTIES 40
FOUNDRY "FontForge"
FAMILY_NAME "VHS Gothic"
WEIGHT_NAME "Book"
SLANT "R"
SETWIDTH_NAME "Normal"
ADD_STYLE_NAME ""
PIXEL_SIZE 10
POINT_SIZE 100
RESOLUTION_X 75
RESOLUTION_Y 75
SPACING "P"
AVERAGE_WIDTH 79
CHARSET_REGISTRY "ISO10646"
CHARSET_ENCODING "1"
FONTNAME_REGISTRY ""
CHARSET_COLLECTIONS "ISO8859-5 JISX0208.1997 ISO10646-1"
FONT_NAME "VHSGothic"
FACE_NAME "VHS Gothic Regular"
COPYRIGHT "Copyright Spottie Leonard 2023"
FONT_VERSION "1.0"
FONT_ASCENT 9
FONT_DESCENT 1
UNDERLINE_POSITION 1
UNDERLINE_THICKNESS 1
X_HEIGHT 5
CAP_HEIGHT 8
RAW_ASCENT 875
RAW_DESCENT 125
NORM_SPACE 8
RELATIVE_WEIGHT 40
RELATIVE_SETWIDTH 50
SUPERSCRIPT_X 0
SUPERSCRIPT_Y 5
SUPERSCRIPT_SIZE 5
SUBSCRIPT_X 0
SUBSCRIPT_Y 0
SUBSCRIPT_SIZE 5
FIGURE_WIDTH 8
AVG_LOWERCASE_WIDTH 80
AVG_UPPERCASE_WIDTH 80
ENDPROPERTIES
CHARS 390
STARTCHAR space
ENCODING 32
SWIDTH 750 0
DWIDTH 8 0
BBX 1 1 0 0
BITMAP
00
ENDCHAR
STARTCHAR exclam
ENCODING 33
SWIDTH 750 0
DWIDTH 8 0
BBX 1 9 3 0
BITMAP
80
80
80
80
80
80
80
00
80
ENDCHAR
STARTCHAR quotedbl
ENCODING 34
SWIDTH 750 0
DWIDTH 8 0
BBX 4 3 2 6
BITMAP
B0
B0
B0
ENDCHAR
STARTCHAR numbersign
ENCODING 35
SWIDTH 750 0
DWIDTH 8 0
BBX 6 9 1 0
BITMAP
58
58
58
FC
58
58
FC
58
58
ENDCHAR
STARTCHAR dollar
ENCODING 36
SWIDTH 750 0
DWIDTH 8 0
BBX 6 9 1 0
BITMAP
20
FC
E0
E0
F8
2C
2C
F8
20
ENDCHAR
STARTCHAR percent
ENCODING 37
SWIDTH 750 0
DWIDTH 8 0
BBX 6 9 1 0
BITMAP
C4
E4
EC
18
30
60
DC
94
98
ENDCHAR
STARTCHAR ampersand
ENCODING 38
SWIDTH 750 0
DWIDTH 8 0
BBX 6 9 1 0
BITMAP
60
F0
90
E0
60
F4
9C
DC
60
ENDCHAR
STARTCHAR quotesingle
ENCODING 39
SWIDTH 750 0
DWIDTH 8 0
BBX 1 3 3 6
BITMAP
80
80
80
ENDCHAR
STARTCHAR parenleft
ENCODING 40
SWIDTH 750 0
DWIDTH 8 0
BBX 3 9 3 0
BITMAP
20
60
C0
80
80
80
C0
60
20
ENDCHAR
STARTCHAR parenright
ENCODING 41
SWIDTH 750 0
DWIDTH 8 0
BBX 3 9 1 0
BITMAP
C0
E0
60
20
20
20
60
60
C0
ENDCHAR
STARTCHAR asterisk
ENCODING 42
SWIDTH 750 0
DWIDTH 8 0
BBX 6 9 1 0
BITMAP
A4
A4
EC
78
FC
78
FC
A4
A4
ENDCHAR
STARTCHAR plus
ENCODING 43
SWIDTH 750 0
DWIDTH 8 0
BBX 5 5 1 2
BITMAP
20
20
F8
20
20
ENDCHAR
STARTCHAR comma
ENCODING 44
SWIDTH 750 0
DWIDTH 8 0
BBX 1 2 3 -1
BITMAP
80
80
ENDCHAR
STARTCHAR hyphen
ENCODING 45
SWIDTH 750 0
DWIDTH 8 0
BBX 5 1 1 4
BITMAP
F8
ENDCHAR
STARTCHAR period
ENCODING 46
SWIDTH 750 0
DWIDTH 8 0
BBX 1 1 3 0
BITMAP
80
ENDCHAR
STARTCHAR slash
ENCODING 47
SWIDTH 750 0
DWIDTH 8 0
BBX 6 7 1 1
BITMAP
04
0C
18
30
60
C0
80
ENDCHAR
STARTCHAR zero
ENCODING 48
SWIDTH 750 0
DWIDTH 8 0
BBX 6 9 1 0
BITMAP
78
FC
84
9C
B4
E4
C4
CC
78
ENDCHAR
STARTCHAR one
ENCODING 49
SWIDTH 750 0
DWIDTH 8 0
BBX 4 9 2 0
BITMAP
40
C0
C0
40
40
40
40
40
F0
ENDCHAR
STARTCHAR two
ENCODING 50
SWIDTH 750 0
DWIDTH 8 0
BBX 6 9 1 0
BITMAP
78
FC
84
0C
78
C0
C0
80
FC
ENDCHAR
STARTCHAR three
ENCODING 51
SWIDTH 750 0
DWIDTH 8 0
BBX 6 9 1 0
BITMAP
78
FC
84
0C
38
0C
84
CC
78
ENDCHAR
STARTCHAR four
ENCODING 52
SWIDTH 750 0
DWIDTH 8 0
BBX 6 9 1 0
BITMAP
38
78
D8
98
98
FC
FC
18
18
ENDCHAR
STARTCHAR five
ENCODING 53
SWIDTH 750 0
DWIDTH 8 0
BBX 6 9 1 0
BITMAP
FC
FC
80
F8
F8
04
84
CC
78
ENDCHAR
STARTCHAR six
ENCODING 54
SWIDTH 750 0
DWIDTH 8 0
BBX 6 9 1 0
BITMAP
78
FC
84
80
F8
8C
84
CC
78
ENDCHAR
STARTCHAR seven
ENCODING 55
SWIDTH 750 0
DWIDTH 8 0
BBX 6 9 1 0
BITMAP
FC
FC
04
0C
18
30
20
20
20
ENDCHAR
STARTCHAR eight
ENCODING 56
SWIDTH 750 0
DWIDTH 8 0
BBX 6 9 1 0
BITMAP
78
FC
84
CC
F8
CC
84
CC
78
ENDCHAR
STARTCHAR nine
ENCODING 57
SWIDTH 750 0
DWIDTH 8 0
BBX 6 9 1 0
BITMAP
78
FC
84
C4
FC
04
84
CC
78
ENDCHAR
STARTCHAR colon
ENCODING 58
SWIDTH 750 0
DWIDTH 8 0
BBX 1 6 3 0
BITMAP
80
00
00
00
00
80
ENDCHAR
STARTCHAR semicolon
ENCODING 59
SWIDTH 750 0
DWIDTH 8 0
BBX 1 6 3 0
BITMAP
80
00
00
00
00
80
ENDCHAR
STARTCHAR less
ENCODING 60
SWIDTH 750 0
DWIDTH 8 0
BBX 4 8 2 1
BITMAP
10
30
60
C0
80
C0
70
30
ENDCHAR
STARTCHAR equal
ENCODING 61
SWIDTH 750 0
DWIDTH 8 0
BBX 5 4 1 2
BITMAP
F8
00
F8
F8
ENDCHAR
STARTCHAR greater
ENCODING 62
SWIDTH 750 0
DWIDTH 8 0
BBX 5 8 1 1
BITMAP
C0
E0
60
18
18
30
60
C0
ENDCHAR
STARTCHAR question
ENCODING 63
SWIDTH 750 0
DWIDTH 8 0
BBX 6 9 1 0
BITMAP
78
FC
84
0C
18
30
20
00
20
ENDCHAR
STARTCHAR at
ENCODING 64
SWIDTH 750 0
DWIDTH 8 0
BBX 6 9 1 0
BITMAP
78
FC
84
BC
A4
BC
98
C0
78
ENDCHAR
STARTCHAR A
ENCODING 65
SWIDTH 750 0
DWIDTH 8 0
BBX 6 9 1 0
BITMAP
78
FC
84
84
FC
84
84
84
84
ENDCHAR
STARTCHAR B
ENCODING 66
SWIDTH 750 0
DWIDTH 8 0
BBX 6 9 1 0
BITMAP
F8
FC
84
8C
F8
8C
84
8C
F8
ENDCHAR
STARTCHAR C
ENCODING 67
SWIDTH 750 0
DWIDTH 8 0
BBX 6 9 1 0
BITMAP
78
FC
84
80
80
80
84
CC
78
ENDCHAR
STARTCHAR D
ENCODING 68
SWIDTH 750 0
DWIDTH 8 0
BBX 6 9 1 0
BITMAP
F8
FC
84
84
84
84
84
8C
F8
ENDCHAR
STARTCHAR E
ENCODING 69
SWIDTH 750 0
DWIDTH 8 0
BBX 6 9 1 0
BITMAP
FC
FC
80
80
F8
80
80
80
FC
ENDCHAR
STARTCHAR F
ENCODING 70
SWIDTH 750 0
DWIDTH 8 0
BBX 6 9 1 0
BITMAP
FC
FC
80
80
F8
80
80
80
80
ENDCHAR
STARTCHAR G
ENCODING 71
SWIDTH 750 0
DWIDTH 8 0
BBX 6 9 1 0
BITMAP
78
FC
84
80
9C
84
8C
DC
74
ENDCHAR
STARTCHAR H
ENCODING 72
SWIDTH 750 0
DWIDTH 8 0
BBX 6 9 1 0
BITMAP
84
84
84
84
FC
84
84
84
84
ENDCHAR
STARTCHAR I
ENCODING 73
SWIDTH 750 0
DWIDTH 8 0
BBX 4 9 2 0
BITMAP
F0
F0
40
40
40
40
40
40
F0
ENDCHAR
STARTCHAR J
ENCODING 74
SWIDTH 750 0
DWIDTH 8 0
BBX 6 9 1 0
BITMAP
3C
3C
18
18
18
18
98
D8
60
ENDCHAR
STARTCHAR K
ENCODING 75
SWIDTH 750 0
DWIDTH 8 0
BBX 6 9 1 0
BITMAP
84
9C
98
E0
E0
E0
B8
98
84
ENDCHAR
STARTCHAR L
ENCODING 76
SWIDTH 750 0
DWIDTH 8 0
BBX 6 9 1 0
BITMAP
80
80
80
80
80
80
80
80
FC
ENDCHAR
STARTCHAR M
ENCODING 77
SWIDTH 750 0
DWIDTH 8 0
BBX 6 9 1 0
BITMAP
84
CC
DC
F4
A4
84
84
84
84
ENDCHAR
STARTCHAR N
ENCODING 78
SWIDTH 750 0
DWIDTH 8 0
BBX 6 9 1 0
BITMAP
84
84
84
E4
E4
9C
9C
84
84
ENDCHAR
STARTCHAR O
ENCODING 79
SWIDTH 750 0
DWIDTH 8 0
BBX 6 9 1 0
BITMAP
78
FC
84
84
84
84
84
CC
78
ENDCHAR
STARTCHAR P
ENCODING 80
SWIDTH 750 0
DWIDTH 8 0
BBX 6 9 1 0
BITMAP
F8
FC
84
8C
F8
80
80
80
80
ENDCHAR
STARTCHAR Q
ENCODING 81
SWIDTH 750 0
DWIDTH 8 0
BBX 6 9 1 0
BITMAP
78
FC
84
84
84
A4
BC
D8
74
ENDCHAR
STARTCHAR R
ENCODING 82
SWIDTH 750 0
DWIDTH 8 0
BBX 6 9 1 0
BITMAP
F8
FC
84
8C
F8
A0
B8
98
84
ENDCHAR
STARTCHAR S
ENCODING 83
SWIDTH 750 0
DWIDTH 8 0
BBX 6 9 1 0
BITMAP
7C
FC
80
C0
F8
0C
04
0C
F8
ENDCHAR
STARTCHAR T
ENCODING 84
SWIDTH 750 0
DWIDTH 8 0
BBX 6 9 1 0
BITMAP
FC
FC
20
20
20
20
20
20
20
ENDCHAR
STARTCHAR U
ENCODING 85
SWIDTH 750 0
DWIDTH 8 0
BBX 6 9 1 0
BITMAP
84
84
84
84
84
84
84
CC
78
ENDCHAR
STARTCHAR V
ENCODING 86
SWIDTH 750 0
DWIDTH 8 0
BBX 6 9 1 0
BITMAP
84
84
84
84
84
84
DC
78
20
ENDCHAR
STARTCHAR W
ENCODING 87
SWIDTH 750 0
DWIDTH 8 0
BBX 6 9 1 0
BITMAP
84
84
84
A4
A4
A4
A4
FC
58
ENDCHAR
STARTCHAR X
ENCODING 88
SWIDTH 750 0
DWIDTH 8 0
BBX 6 9 1 0
BITMAP
84
84
CC
78
70
78
DC
84
84
ENDCHAR
STARTCHAR Y
ENCODING 89
SWIDTH 750 0
DWIDTH 8 0
BBX 6 9 1 0
BITMAP
84
84
CC
78
70
20
20
20
20
ENDCHAR
STARTCHAR Z
ENCODING 90
SWIDTH 750 0
DWIDTH 8 0
BBX 6 9 1 0
BITMAP
FC
FC
0C
18
30
60
C0
80
FC
ENDCHAR
STARTCHAR bracketleft
ENCODING 91
SWIDTH 750 0
DWIDTH 8 0
BBX 4 9 2 0
BITMAP
F0
F0
80
80
80
80
80
80
F0
ENDCHAR
STARTCHAR backslash
ENCODING 92
SWIDTH 750 0
DWIDTH 8 0
BBX 6 7 1 1
BITMAP
80
C0
60
60
18
1C
04
ENDCHAR
STARTCHAR bracketright
ENCODING 93
SWIDTH 750 0
DWIDTH 8 0
BBX 4 9 2 0
BITMAP
F0
F0
30
30
30
30
30
30
F0
ENDCHAR
STARTCHAR asciicircum
ENCODING 94
SWIDTH 750 0
DWIDTH 8 0
BBX 5 3 1 6
BITMAP
20
78
D8
ENDCHAR
STARTCHAR underscore
ENCODING 95
SWIDTH 750 0
DWIDTH 8 0
BBX 6 1 1 -1
BITMAP
FC
ENDCHAR
STARTCHAR grave
ENCODING 96
SWIDTH 750 0
DWIDTH 8 0
BBX 3 2 2 8
BITMAP
C0
20
ENDCHAR
STARTCHAR a
ENCODING 97
SWIDTH 750 0
DWIDTH 8 0
BBX 6 6 1 0
BITMAP
FC
84
FC
FC
8C
F4
ENDCHAR
STARTCHAR b
ENCODING 98
SWIDTH 750 0
DWIDTH 8 0
BBX 6 9 1 0
BITMAP
80
80
80
F8
8C
84
84
8C
F8
ENDCHAR
STARTCHAR c
ENCODING 99
SWIDTH 750 0
DWIDTH 8 0
BBX 6 6 1 0
BITMAP
F8
CC
80
84
CC
78
ENDCHAR
STARTCHAR d
ENCODING 100
SWIDTH 750 0
DWIDTH 8 0
BBX 6 9 1 0
BITMAP
04
04
04
FC
C4
84
84
C4
7C
ENDCHAR
STARTCHAR e
ENCODING 101
SWIDTH 750 0
DWIDTH 8 0
BBX 6 6 1 0
BITMAP
F8
CC
FC
FC
C0
7C
ENDCHAR
STARTCHAR f
ENCODING 102
SWIDTH 750 0
DWIDTH 8 0
BBX 5 9 1 0
BITMAP
38
78
60
F0
F0
60
60
60
60
ENDCHAR
STARTCHAR g
ENCODING 103
SWIDTH 750 0
DWIDTH 8 0
BBX 6 7 1 -1
BITMAP
FC
C4
84
FC
7C
0C
F8
ENDCHAR
STARTCHAR h
ENCODING 104
SWIDTH 750 0
DWIDTH 8 0
BBX 6 9 1 0
BITMAP
80
80
80
F8
8C
84
84
84
84
ENDCHAR
STARTCHAR i
ENCODING 105
SWIDTH 750 0
DWIDTH 8 0
BBX 4 9 2 0
BITMAP
40
40
00
C0
40
40
40
40
F0
ENDCHAR
STARTCHAR j
ENCODING 106
SWIDTH 750 0
DWIDTH 8 0
BBX 5 10 1 -1
BITMAP
18
18
00
78
18
18
18
18
D8
F0
ENDCHAR
STARTCHAR k
ENCODING 107
SWIDTH 750 0
DWIDTH 8 0
BBX 6 9 1 0
BITMAP
80
80
80
8C
98
F0
F8
98
84
ENDCHAR
STARTCHAR l
ENCODING 108
SWIDTH 750 0
DWIDTH 8 0
BBX 4 9 2 0
BITMAP
C0
C0
40
40
40
40
40
40
F0
ENDCHAR
STARTCHAR m
ENCODING 109
SWIDTH 750 0
DWIDTH 8 0
BBX 6 6 1 0
BITMAP
FC
EC
A4
A4
A4
A4
ENDCHAR
STARTCHAR n
ENCODING 110
SWIDTH 750 0
DWIDTH 8 0
BBX 6 6 1 0
BITMAP
F8
8C
84
84
84
84
ENDCHAR
STARTCHAR o
ENCODING 111
SWIDTH 750 0
DWIDTH 8 0
BBX 6 6 1 0
BITMAP
F8
CC
84
84
CC
78
ENDCHAR
STARTCHAR p
ENCODING 112
SWIDTH 750 0
DWIDTH 8 0
BBX 6 7 1 -1
BITMAP
F8
8C
84
8C
F8
80
80
ENDCHAR
STARTCHAR q
ENCODING 113
SWIDTH 750 0
DWIDTH 8 0
BBX 6 7 1 -1
BITMAP
F8
C8
88
C8
F8
08
0C
ENDCHAR
STARTCHAR r
ENCODING 114
SWIDTH 750 0
DWIDTH 8 0
BBX 6 6 1 0
BITMAP
F8
CC
80
80
80
80
ENDCHAR
STARTCHAR s
ENCODING 115
SWIDTH 750 0
DWIDTH 8 0
BBX 6 6 1 0
BITMAP
FC
C0
F8
7C
0C
F8
ENDCHAR
STARTCHAR t
ENCODING 116
SWIDTH 750 0
DWIDTH 8 0
BBX 5 9 1 0
BITMAP
20
20
20
F8
20
20
20
20
18
ENDCHAR
STARTCHAR u
ENCODING 117
SWIDTH 750 0
DWIDTH 8 0
BBX 6 6 1 0
BITMAP
84
84
84
84
C4
7C
ENDCHAR
STARTCHAR v
ENCODING 118
SWIDTH 750 0
DWIDTH 8 0
BBX 6 6 1 0
BITMAP
84
84
84
DC
78
20
ENDCHAR
STARTCHAR w
ENCODING 119
SWIDTH 750 0
DWIDTH 8 0
BBX 6 6 1 0
BITMAP
84
A4
A4
A4
FC
58
ENDCHAR
STARTCHAR x
ENCODING 120
SWIDTH 750 0
DWIDTH 8 0
BBX 6 6 1 0
BITMAP
CC
D8
70
78
D8
84
ENDCHAR
STARTCHAR y
ENCODING 121
SWIDTH 750 0
DWIDTH 8 0
BBX 6 7 1 -1
BITMAP
84
84
84
FC
7C
0C
F8
ENDCHAR
STARTCHAR z
ENCODING 122
SWIDTH 750 0
DWIDTH 8 0
BBX 6 6 1 0
BITMAP
FC
18
30
60
C0
FC
ENDCHAR
STARTCHAR braceleft
ENCODING 123
SWIDTH 750 0
DWIDTH 8 0
BBX 4 9 2 0
BITMAP
30
70
40
C0
C0
C0
40
40
30
ENDCHAR
STARTCHAR bar
ENCODING 124
SWIDTH 750 0
DWIDTH 8 0
BBX 1 9 3 0
BITMAP
80
80
80
80
80
80
80
80
80
ENDCHAR
STARTCHAR braceright
ENCODING 125
SWIDTH 750 0
DWIDTH 8 0
BBX 5 9 1 0
BITMAP
E0
E0
20
30
18
30
20
20
E0
ENDCHAR
STARTCHAR asciitilde
ENCODING 126
SWIDTH 750 0
DWIDTH 8 0
BBX 6 2 1 4
BITMAP
EC
F8
ENDCHAR
STARTCHAR exclamdown
ENCODING 161
SWIDTH 750 0
DWIDTH 8 0
BBX 1 9 3 -1
BITMAP
80
80
00
80
80
80
80
80
80
ENDCHAR
STARTCHAR cent
ENCODING 162
SWIDTH 750 0
DWIDTH 8 0
BBX 6 8 1 1
BITMAP
0C
F8
DC
B0
E0
EC
F8
C0
ENDCHAR
STARTCHAR sterling
ENCODING 163
SWIDTH 750 0
DWIDTH 8 0
BBX 6 9 1 0
BITMAP
70
F8
C8
C0
F0
C0
C0
80
FC
ENDCHAR
STARTCHAR currency
ENCODING 164
SWIDTH 750 0
DWIDTH 8 0
BBX 6 6 1 2
BITMAP
CC
F8
58
58
F8
CC
ENDCHAR
STARTCHAR yen
ENCODING 165
SWIDTH 750 0
DWIDTH 8 0
BBX 6 9 1 0
BITMAP
84
84
84
D8
78
FC
FC
FC
20
ENDCHAR
STARTCHAR brokenbar
ENCODING 166
SWIDTH 750 0
DWIDTH 8 0
BBX 1 10 3 -1
BITMAP
80
80
80
80
80
00
80
80
80
80
ENDCHAR
STARTCHAR section
ENCODING 167
SWIDTH 750 0
DWIDTH 8 0
BBX 7 9 1 0
BITMAP
7E
FE
C0
FE
86
FE
FE
06
F8
ENDCHAR
STARTCHAR dieresis
ENCODING 168
SWIDTH 750 0
DWIDTH 8 0
BBX 4 1 2 9
BITMAP
B0
ENDCHAR
STARTCHAR copyright
ENCODING 169
SWIDTH 750 0
DWIDTH 8 0
BBX 6 7 1 1
BITMAP
78
80
54
44
A0
D8
20
ENDCHAR
STARTCHAR ordfeminine
ENCODING 170
SWIDTH 750 0
DWIDTH 8 0
BBX 4 3 2 6
BITMAP
E0
F0
90
ENDCHAR
STARTCHAR guillemotleft
ENCODING 171
SWIDTH 750 0
DWIDTH 8 0
BBX 6 5 1 2
BITMAP
64
D8
D8
D8
6C
ENDCHAR
STARTCHAR logicalnot
ENCODING 172
SWIDTH 750 0
DWIDTH 8 0
BBX 6 5 1 2
BITMAP
FC
04
04
04
04
ENDCHAR
STARTCHAR uni00AD
ENCODING 173
SWIDTH 750 0
DWIDTH 8 0
BBX 3 2 2 4
BITMAP
E0
E0
ENDCHAR
STARTCHAR registered
ENCODING 174
SWIDTH 750 0
DWIDTH 8 0
BBX 6 7 1 1
BITMAP
78
80
54
64
D0
D8
20
ENDCHAR
STARTCHAR macron
ENCODING 175
SWIDTH 750 0
DWIDTH 8 0
BBX 5 1 1 9
BITMAP
F8
ENDCHAR
STARTCHAR degree
ENCODING 176
SWIDTH 750 0
DWIDTH 8 0
BBX 4 4 2 5
BITMAP
E0
F0
B0
E0
ENDCHAR
STARTCHAR plusminus
ENCODING 177
SWIDTH 750 0
DWIDTH 8 0
BBX 5 7 1 1
BITMAP
20
20
F8
20
20
00
F8
ENDCHAR
STARTCHAR uni00B2
ENCODING 178
SWIDTH 750 0
DWIDTH 8 0
BBX 3 3 1 5
BITMAP
E0
20
80
ENDCHAR
STARTCHAR uni00B3
ENCODING 179
SWIDTH 750 0
DWIDTH 8 0
BBX 3 4 1 4
BITMAP
E0
20
20
20
ENDCHAR
STARTCHAR acute
ENCODING 180
SWIDTH 750 0
DWIDTH 8 0
BBX 3 2 3 8
BITMAP
60
80
ENDCHAR
STARTCHAR mu
ENCODING 181
SWIDTH 750 0
DWIDTH 8 0
BBX 6 7 1 -1
BITMAP
88
88
88
88
D8
EC
84
ENDCHAR
STARTCHAR paragraph
ENCODING 182
SWIDTH 750 0
DWIDTH 8 0
BBX 6 9 1 0
BITMAP
7C
FC
F4
F4
F4
14
14
14
14
ENDCHAR
STARTCHAR periodcentered
ENCODING 183
SWIDTH 750 0
DWIDTH 8 0
BBX 1 1 3 4
BITMAP
80
ENDCHAR
STARTCHAR cedilla
ENCODING 184
SWIDTH 750 0
DWIDTH 8 0
BBX 1 1 3 -1
BITMAP
80
ENDCHAR
STARTCHAR uni00B9
ENCODING 185
SWIDTH 750 0
DWIDTH 8 0
BBX 2 4 1 4
BITMAP
C0
40
40
40
ENDCHAR
STARTCHAR ordmasculine
ENCODING 186
SWIDTH 750 0
DWIDTH 8 0
BBX 4 3 2 6
BITMAP
E0
F0
F0
ENDCHAR
STARTCHAR guillemotright
ENCODING 187
SWIDTH 750 0
DWIDTH 8 0
BBX 6 5 1 2
BITMAP
90
D8
6C
D8
D8
ENDCHAR
STARTCHAR onequarter
ENCODING 188
SWIDTH 750 0
DWIDTH 8 0
BBX 6 8 1 1
BITMAP
84
98
90
A0
24
48
DC
84
ENDCHAR
STARTCHAR onehalf
ENCODING 189
SWIDTH 750 0
DWIDTH 8 0
BBX 6 8 1 1
BITMAP
84
98
90
A0
28
40
D8
9C
ENDCHAR
STARTCHAR threequarters
ENCODING 190
SWIDTH 750 0
DWIDTH 8 0
BBX 6 8 1 1
BITMAP
C4
58
50
20
24
48
DC
84
ENDCHAR
STARTCHAR questiondown
ENCODING 191
SWIDTH 750 0
DWIDTH 8 0
BBX 6 9 1 -1
BITMAP
20
20
00
20
60
C0
80
CC
F8
ENDCHAR
STARTCHAR Agrave
ENCODING 192
SWIDTH 750 0
DWIDTH 8 0
BBX 6 9 1 0
BITMAP
40
60
00
F8
CC
84
FC
84
84
ENDCHAR
STARTCHAR Aacute
ENCODING 193
SWIDTH 750 0
DWIDTH 8 0
BBX 6 9 1 0
BITMAP
18
30
00
F8
CC
84
FC
84
84
ENDCHAR
STARTCHAR Acircumflex
ENCODING 194
SWIDTH 750 0
DWIDTH 8 0
BBX 6 9 1 0
BITMAP
20
78
00
F8
CC
84
FC
84
84
ENDCHAR
STARTCHAR Atilde
ENCODING 195
SWIDTH 750 0
DWIDTH 8 0
BBX 6 9 1 0
BITMAP
68
F8
00
F8
CC
84
FC
84
84
ENDCHAR
STARTCHAR Adieresis
ENCODING 196
SWIDTH 750 0
DWIDTH 8 0
BBX 6 8 1 0
BITMAP
58
00
F8
CC
84
FC
84
84
ENDCHAR
STARTCHAR Aring
ENCODING 197
SWIDTH 750 0
DWIDTH 8 0
BBX 6 8 1 0
BITMAP
78
70
F8
CC
84
FC
84
84
ENDCHAR
STARTCHAR AE
ENCODING 198
SWIDTH 750 0
DWIDTH 8 0
BBX 6 9 1 0
BITMAP
7C
FC
D0
90
FC
90
90
90
9C
ENDCHAR
STARTCHAR Ccedilla
ENCODING 199
SWIDTH 750 0
DWIDTH 8 0
BBX 6 10 1 -1
BITMAP
78
FC
84
80
80
80
84
CC
78
20
ENDCHAR
STARTCHAR Egrave
ENCODING 200
SWIDTH 750 0
DWIDTH 8 0
BBX 6 9 1 0
BITMAP
40
60
00
FC
80
F8
F8
80
FC
ENDCHAR
STARTCHAR Eacute
ENCODING 201
SWIDTH 750 0
DWIDTH 8 0
BBX 6 9 1 0
BITMAP
18
30
00
FC
80
F8
F8
80
FC
ENDCHAR
STARTCHAR Ecircumflex
ENCODING 202
SWIDTH 750 0
DWIDTH 8 0
BBX 6 9 1 0
BITMAP
20
78
00
FC
80
F8
F8
80
FC
ENDCHAR
STARTCHAR Edieresis
ENCODING 203
SWIDTH 750 0
DWIDTH 8 0
BBX 6 8 1 0
BITMAP
58
00
FC
80
F8
F8
80
FC
ENDCHAR
STARTCHAR Igrave
ENCODING 204
SWIDTH 750 0
DWIDTH 8 0
BBX 6 9 1 0
BITMAP
40
60
00
FC
20
20
20
20
FC
ENDCHAR
STARTCHAR Iacute
ENCODING 205
SWIDTH 750 0
DWIDTH 8 0
BBX 6 9 1 0
BITMAP
18
30
00
FC
20
20
20
20
FC
ENDCHAR
STARTCHAR Icircumflex
ENCODING 206
SWIDTH 750 0
DWIDTH 8 0
BBX 6 9 1 0
BITMAP
20
78
00
FC
20
20
20
20
FC
ENDCHAR
STARTCHAR Idieresis
ENCODING 207
SWIDTH 750 0
DWIDTH 8 0
BBX 6 8 1 0
BITMAP
58
00
FC
20
20
20
20
FC
ENDCHAR
STARTCHAR Eth
ENCODING 208
SWIDTH 750 0
DWIDTH 8 0
BBX 7 9 0 0
BITMAP
7C
7E
42
42
F2
42
42
46
7C
ENDCHAR
STARTCHAR Ntilde
ENCODING 209
SWIDTH 750 0
DWIDTH 8 0
BBX 6 8 1 0
BITMAP
F8
00
C4
C4
E4
BC
9C
84
ENDCHAR
STARTCHAR Ograve
ENCODING 210
SWIDTH 750 0
DWIDTH 8 0
BBX 6 9 1 0
BITMAP
40
60
00
F8
CC
84
84
CC
78
ENDCHAR
STARTCHAR Oacute
ENCODING 211
SWIDTH 750 0
DWIDTH 8 0
BBX 6 9 1 0
BITMAP
18
30
00
F8
CC
84
84
CC
78
ENDCHAR
STARTCHAR Ocircumflex
ENCODING 212
SWIDTH 750 0
DWIDTH 8 0
BBX 6 9 1 0
BITMAP
20
78
00
F8
CC
84
84
CC
78
ENDCHAR
STARTCHAR Otilde
ENCODING 213
SWIDTH 750 0
DWIDTH 8 0
BBX 6 8 1 0
BITMAP
F8
00
F8
CC
84
84
CC
78
ENDCHAR
STARTCHAR Odieresis
ENCODING 214
SWIDTH 750 0
DWIDTH 8 0
BBX 6 8 1 0
BITMAP
58
00
F8
CC
84
84
CC
78
ENDCHAR
STARTCHAR multiply
ENCODING 215
SWIDTH 750 0
DWIDTH 8 0
BBX 6 6 1 2
BITMAP
CC
D8
70
70
D8
CC
ENDCHAR
STARTCHAR Oslash
ENCODING 216
SWIDTH 750 0
DWIDTH 8 0
BBX 6 10 1 -1
BITMAP
7C
FC
9C
94
A4
E4
E4
CC
F8
80
ENDCHAR
STARTCHAR Ugrave
ENCODING 217
SWIDTH 750 0
DWIDTH 8 0
BBX 6 9 1 0
BITMAP
40
60
00
84
84
84
84
CC
78
ENDCHAR
STARTCHAR Uacute
ENCODING 218
SWIDTH 750 0
DWIDTH 8 0
BBX 6 9 1 0
BITMAP
18
30
00
84
84
84
84
CC
78
ENDCHAR
STARTCHAR Ucircumflex
ENCODING 219
SWIDTH 750 0
DWIDTH 8 0
BBX 6 9 1 0
BITMAP
20
78
00
84
84
84
84
CC
78
ENDCHAR
STARTCHAR Udieresis
ENCODING 220
SWIDTH 750 0
DWIDTH 8 0
BBX 6 8 1 0
BITMAP
58
00
84
84
84
84
CC
78
ENDCHAR
STARTCHAR Yacute
ENCODING 221
SWIDTH 750 0
DWIDTH 8 0
BBX 6 9 1 0
BITMAP
18
30
00
84
84
D8
78
20
20
ENDCHAR
STARTCHAR Thorn
ENCODING 222
SWIDTH 750 0
DWIDTH 8 0
BBX 6 9 1 0
BITMAP
C0
C0
F8
CC
C4
CC
F8
C0
C0
ENDCHAR
STARTCHAR germandbls
ENCODING 223
SWIDTH 750 0
DWIDTH 8 0
BBX 5 10 1 -1
BITMAP
78
F8
C8
D8
F8
D8
C8
C8
F8
C0
ENDCHAR
STARTCHAR agrave
ENCODING 224
SWIDTH 750 0
DWIDTH 8 0
BBX 6 9 1 0
BITMAP
40
60
00
FC
84
FC
FC
8C
F4
ENDCHAR
STARTCHAR aacute
ENCODING 225
SWIDTH 750 0
DWIDTH 8 0
BBX 6 9 1 0
BITMAP
18
30
00
FC
84
FC
FC
8C
F4
ENDCHAR
STARTCHAR acircumflex
ENCODING 226
SWIDTH 750 0
DWIDTH 8 0
BBX 6 9 1 0
BITMAP
20
70
00
FC
84
FC
FC
8C
F4
ENDCHAR
STARTCHAR atilde
ENCODING 227
SWIDTH 750 0
DWIDTH 8 0
BBX 6 8 1 0
BITMAP
F8
00
FC
84
FC
FC
8C
F4
ENDCHAR
STARTCHAR adieresis
ENCODING 228
SWIDTH 750 0
DWIDTH 8 0
BBX 6 8 1 0
BITMAP
50
00
FC
84
FC
FC
8C
F4
ENDCHAR
STARTCHAR aring
ENCODING 229
SWIDTH 750 0
DWIDTH 8 0
BBX 6 9 1 0
BITMAP
20
70
00
FC
84
FC
FC
8C
F4
ENDCHAR
STARTCHAR ae
ENCODING 230
SWIDTH 750 0
DWIDTH 8 0
BBX 6 6 1 0
BITMAP
FC
A4
FC
F8
A0
DC
ENDCHAR
STARTCHAR ccedilla
ENCODING 231
SWIDTH 750 0
DWIDTH 8 0
BBX 6 7 1 -1
BITMAP
F8
CC
80
84
CC
78
20
ENDCHAR
STARTCHAR egrave
ENCODING 232
SWIDTH 750 0
DWIDTH 8 0
BBX 6 9 1 0
BITMAP
40
60
00
F8
CC
FC
FC
C0
7C
ENDCHAR
STARTCHAR eacute
ENCODING 233
SWIDTH 750 0
DWIDTH 8 0
BBX 6 9 1 0
BITMAP
18
30
00
F8
CC
FC
FC
C0
7C
ENDCHAR
STARTCHAR ecircumflex
ENCODING 234
SWIDTH 750 0
DWIDTH 8 0
BBX 6 9 1 0
BITMAP
20
78
00
F8
CC
FC
FC
C0
7C
ENDCHAR
STARTCHAR edieresis
ENCODING 235
SWIDTH 750 0
DWIDTH 8 0
BBX 6 8 1 0
BITMAP
58
00
F8
CC
FC
FC
C0
7C
ENDCHAR
STARTCHAR igrave
ENCODING 236
SWIDTH 750 0
DWIDTH 8 0
BBX 4 9 2 0
BITMAP
80
C0
00
C0
40
40
40
40
F0
ENDCHAR
STARTCHAR iacute
ENCODING 237
SWIDTH 750 0
DWIDTH 8 0
BBX 4 9 2 0
BITMAP
30
60
00
C0
40
40
40
40
F0
ENDCHAR
STARTCHAR icircumflex
ENCODING 238
SWIDTH 750 0
DWIDTH 8 0
BBX 4 9 2 0
BITMAP
40
F0
00
C0
40
40
40
40
F0
ENDCHAR
STARTCHAR idieresis
ENCODING 239
SWIDTH 750 0
DWIDTH 8 0
BBX 4 8 2 0
BITMAP
B0
00
C0
40
40
40
40
F0
ENDCHAR
STARTCHAR eth
ENCODING 240
SWIDTH 750 0
DWIDTH 8 0
BBX 5 9 1 0
BITMAP
68
78
78
08
78
C8
88
C8
78
ENDCHAR
STARTCHAR ntilde
ENCODING 241
SWIDTH 750 0
DWIDTH 8 0
BBX 6 8 1 0
BITMAP
F8
00
F8
8C
84
84
84
84
ENDCHAR
STARTCHAR ograve
ENCODING 242
SWIDTH 750 0
DWIDTH 8 0
BBX 6 9 1 0
BITMAP
40
60
00
F8
CC
84
84
CC
78
ENDCHAR
STARTCHAR oacute
ENCODING 243
SWIDTH 750 0
DWIDTH 8 0
BBX 6 9 1 0
BITMAP
18
30
00
F8
CC
84
84
CC
78
ENDCHAR
STARTCHAR ocircumflex
ENCODING 244
SWIDTH 750 0
DWIDTH 8 0
BBX 6 9 1 0
BITMAP
20
78
00
F8
CC
84
84
CC
78
ENDCHAR
STARTCHAR otilde
ENCODING 245
SWIDTH 750 0
DWIDTH 8 0
BBX 6 8 1 0
BITMAP
F8
00
F8
CC
84
84
CC
78
ENDCHAR
STARTCHAR odieresis
ENCODING 246
SWIDTH 750 0
DWIDTH 8 0
BBX 6 8 1 0
BITMAP
58
00
F8
CC
84
84
CC
78
ENDCHAR
STARTCHAR divide
ENCODING 247
SWIDTH 750 0
DWIDTH 8 0
BBX 5 6 1 2
BITMAP
20
20
F8
F8
20
20
ENDCHAR
STARTCHAR oslash
ENCODING 248
SWIDTH 750 0
DWIDTH 8 0
BBX 6 8 1 -1
BITMAP
04
F8
DC
B4
E4
CC
F8
80
ENDCHAR
STARTCHAR ugrave
ENCODING 249
SWIDTH 750 0
DWIDTH 8 0
BBX 6 9 1 0
BITMAP
40
60
00
84
84
84
84
C4
7C
ENDCHAR
STARTCHAR uacute
ENCODING 250
SWIDTH 750 0
DWIDTH 8 0
BBX 6 9 1 0
BITMAP
18
30
00
84
84
84
84
C4
7C
ENDCHAR
STARTCHAR ucircumflex
ENCODING 251
SWIDTH 750 0
DWIDTH 8 0
BBX 6 9 1 0
BITMAP
20
78
00
84
84
84
84
C4
7C
ENDCHAR
STARTCHAR udieresis
ENCODING 252
SWIDTH 750 0
DWIDTH 8 0
BBX 6 8 1 0
BITMAP
58
00
84
84
84
84
C4
7C
ENDCHAR
STARTCHAR yacute
ENCODING 253
SWIDTH 750 0
DWIDTH 8 0
BBX 6 10 1 -1
BITMAP
18
30
00
84
84
84
FC
7C
0C
F8
ENDCHAR
STARTCHAR thorn
ENCODING 254
SWIDTH 750 0
DWIDTH 8 0
BBX 6 10 1 -1
BITMAP
80
80
80
FC
8C
8C
FC
80
80
80
ENDCHAR
STARTCHAR ydieresis
ENCODING 255
SWIDTH 750 0
DWIDTH 8 0
BBX 6 9 1 -1
BITMAP
58
00
84
84
84
FC
7C
0C
F8
ENDCHAR
STARTCHAR dotlessi
ENCODING 305
SWIDTH 750 0
DWIDTH 8 0
BBX 5 6 1 0
BITMAP
E0
20
20
20
20
F8
ENDCHAR
STARTCHAR OE
ENCODING 338
SWIDTH 750 0
DWIDTH 8 0
BBX 6 9 1 0
BITMAP
7C
FC
90
90
9C
90
90
D0
7C
ENDCHAR
STARTCHAR oe
ENCODING 339
SWIDTH 750 0
DWIDTH 8 0
BBX 6 6 1 0
BITMAP
FC
A4
BC
B8
A4
D8
ENDCHAR
STARTCHAR Ydieresis
ENCODING 376
SWIDTH 750 0
DWIDTH 8 0
BBX 6 8 1 0
BITMAP
58
00
84
84
D8
78
20
20
ENDCHAR
STARTCHAR circumflex
ENCODING 710
SWIDTH 750 0
DWIDTH 8 0
BBX 4 2 2 8
BITMAP
40
B0
ENDCHAR
STARTCHAR ring
ENCODING 730
SWIDTH 750 0
DWIDTH 8 0
BBX 3 3 2 7
BITMAP
40
A0
40
ENDCHAR
STARTCHAR tilde
ENCODING 732
SWIDTH 750 0
DWIDTH 8 0
BBX 4 1 2 9
BITMAP
F0
ENDCHAR
STARTCHAR uni0405
ENCODING 1029
SWIDTH 750 0
DWIDTH 8 0
BBX 1 1 0 0
BITMAP
00
ENDCHAR
STARTCHAR uni040F
ENCODING 1039
SWIDTH 750 0
DWIDTH 8 0
BBX 1 1 0 0
BITMAP
00
ENDCHAR
STARTCHAR uni0410
ENCODING 1040
SWIDTH 750 0
DWIDTH 8 0
BBX 1 1 0 0
BITMAP
00
ENDCHAR
STARTCHAR uni0411
ENCODING 1041
SWIDTH 750 0
DWIDTH 8 0
BBX 1 1 0 0
BITMAP
00
ENDCHAR
STARTCHAR uni0412
ENCODING 1042
SWIDTH 750 0
DWIDTH 8 0
BBX 1 1 0 0
BITMAP
00
ENDCHAR
STARTCHAR uni0413
ENCODING 1043
SWIDTH 750 0
DWIDTH 8 0
BBX 1 1 0 0
BITMAP
00
ENDCHAR
STARTCHAR uni0415
ENCODING 1045
SWIDTH 750 0
DWIDTH 8 0
BBX 1 1 0 0
BITMAP
00
ENDCHAR
STARTCHAR uni0417
ENCODING 1047
SWIDTH 750 0
DWIDTH 8 0
BBX 1 1 0 0
BITMAP
00
ENDCHAR
STARTCHAR uni0418
ENCODING 1048
SWIDTH 750 0
DWIDTH 8 0
BBX 1 1 0 0
BITMAP
00
ENDCHAR
STARTCHAR uni041B
ENCODING 1051
SWIDTH 750 0
DWIDTH 8 0
BBX 1 1 0 0
BITMAP
00
ENDCHAR
STARTCHAR uni041C
ENCODING 1052
SWIDTH 750 0
DWIDTH 8 0
BBX 1 1 0 0
BITMAP
00
ENDCHAR
STARTCHAR uni041D
ENCODING 1053
SWIDTH 750 0
DWIDTH 8 0
BBX 1 1 0 0
BITMAP
00
ENDCHAR
STARTCHAR uni041E
ENCODING 1054
SWIDTH 750 0
DWIDTH 8 0
BBX 1 1 0 0
BITMAP
00
ENDCHAR
STARTCHAR uni041F
ENCODING 1055
SWIDTH 750 0
DWIDTH 8 0
BBX 1 1 0 0
BITMAP
00
ENDCHAR
STARTCHAR uni0420
ENCODING 1056
SWIDTH 750 0
DWIDTH 8 0
BBX 1 1 0 0
BITMAP
00
ENDCHAR
STARTCHAR uni0421
ENCODING 1057
SWIDTH 750 0
DWIDTH 8 0
BBX 1 1 0 0
BITMAP
00
ENDCHAR
STARTCHAR uni0422
ENCODING 1058
SWIDTH 750 0
DWIDTH 8 0
BBX 1 1 0 0
BITMAP
00
ENDCHAR
STARTCHAR uni0425
ENCODING 1061
SWIDTH 750 0
DWIDTH 8 0
BBX 1 1 0 0
BITMAP
00
ENDCHAR
STARTCHAR uni0426
ENCODING 1062
SWIDTH 750 0
DWIDTH 8 0
BBX 1 1 0 0
BITMAP
00
ENDCHAR
STARTCHAR uni0428
ENCODING 1064
SWIDTH 750 0
DWIDTH 8 0
BBX 1 1 0 0
BITMAP
00
ENDCHAR
STARTCHAR uni0429
ENCODING 1065
SWIDTH 750 0
DWIDTH 8 0
BBX 1 1 0 0
BITMAP
00
ENDCHAR
STARTCHAR uni042C
ENCODING 1068
SWIDTH 750 0
DWIDTH 8 0
BBX 1 1 0 0
BITMAP
00
ENDCHAR
STARTCHAR uni042F
ENCODING 1071
SWIDTH 750 0
DWIDTH 8 0
BBX 1 1 0 0
BITMAP
00
ENDCHAR
STARTCHAR uni0430
ENCODING 1072
SWIDTH 750 0
DWIDTH 8 0
BBX 1 1 0 0
BITMAP
00
ENDCHAR
STARTCHAR uni0435
ENCODING 1077
SWIDTH 750 0
DWIDTH 8 0
BBX 1 1 0 0
BITMAP
00
ENDCHAR
STARTCHAR uni0438
ENCODING 1080
SWIDTH 750 0
DWIDTH 8 0
BBX 1 1 0 0
BITMAP
00
ENDCHAR
STARTCHAR uni043B
ENCODING 1083
SWIDTH 750 0
DWIDTH 8 0
BBX 1 1 0 0
BITMAP
00
ENDCHAR
STARTCHAR uni043D
ENCODING 1085
SWIDTH 750 0
DWIDTH 8 0
BBX 1 1 0 0
BITMAP
00
ENDCHAR
STARTCHAR uni043F
ENCODING 1087
SWIDTH 750 0
DWIDTH 8 0
BBX 1 1 0 0
BITMAP
00
ENDCHAR
STARTCHAR uni0442
ENCODING 1090
SWIDTH 750 0
DWIDTH 8 0
BBX 1 1 0 0
BITMAP
00
ENDCHAR
STARTCHAR uni0446
ENCODING 1094
SWIDTH 750 0
DWIDTH 8 0
BBX 1 1 0 0
BITMAP
00
ENDCHAR
STARTCHAR uni0448
ENCODING 1096
SWIDTH 750 0
DWIDTH 8 0
BBX 1 1 0 0
BITMAP
00
ENDCHAR
STARTCHAR endash
ENCODING 8211
SWIDTH 750 0
DWIDTH 8 0
BBX 5 1 1 4
BITMAP
F8
ENDCHAR
STARTCHAR emdash
ENCODING 8212
SWIDTH 750 0
DWIDTH 8 0
BBX 8 1 0 4
BITMAP
FF
ENDCHAR
STARTCHAR quoteleft
ENCODING 8216
SWIDTH 750 0
DWIDTH 8 0
BBX 1 2 3 6
BITMAP
80
80
ENDCHAR
STARTCHAR quoteright
ENCODING 8217
SWIDTH 750 0
DWIDTH 8 0
BBX 1 3 3 6
BITMAP
80
80
80
ENDCHAR
STARTCHAR quotesinglbase
ENCODING 8218
SWIDTH 750 0
DWIDTH 8 0
BBX 1 1 3 0
BITMAP
80
ENDCHAR
STARTCHAR quotereversed
ENCODING 8219
SWIDTH 750 0
DWIDTH 8 0
BBX 1 2 3 7
BITMAP
80
80
ENDCHAR
STARTCHAR quotedblleft
ENCODING 8220
SWIDTH 750 0
DWIDTH 8 0
BBX 4 3 2 6
BITMAP
90
B0
B0
ENDCHAR
STARTCHAR quotedblright
ENCODING 8221
SWIDTH 750 0
DWIDTH 8 0
BBX 4 3 2 6
BITMAP
B0
B0
A0
ENDCHAR
STARTCHAR quotedblbase
ENCODING 8222
SWIDTH 750 0
DWIDTH 8 0
BBX 4 2 2 -1
BITMAP
B0
90
ENDCHAR
STARTCHAR bullet
ENCODING 8226
SWIDTH 750 0
DWIDTH 8 0
BBX 3 2 2 4
BITMAP
E0
E0
ENDCHAR
STARTCHAR ellipsis
ENCODING 8230
SWIDTH 750 0
DWIDTH 8 0
BBX 5 1 1 0
BITMAP
E8
ENDCHAR
STARTCHAR guilsinglleft
ENCODING 8249
SWIDTH 750 0
DWIDTH 8 0
BBX 4 5 2 2
BITMAP
30
60
C0
60
30
ENDCHAR
STARTCHAR guilsinglright
ENCODING 8250
SWIDTH 750 0
DWIDTH 8 0
BBX 3 5 2 2
BITMAP
80
C0
60
C0
C0
ENDCHAR
STARTCHAR fraction
ENCODING 8260
SWIDTH 750 0
DWIDTH 8 0
BBX 6 6 1 2
BITMAP
0C
18
30
60
C0
C0
ENDCHAR
STARTCHAR uni2074
ENCODING 8308
SWIDTH 750 0
DWIDTH 8 0
BBX 3 4 1 4
BITMAP
C0
40
E0
40
ENDCHAR
STARTCHAR Euro
ENCODING 8364
SWIDTH 750 0
DWIDTH 8 0
BBX 7 9 0 0
BITMAP
3C
7E
42
F8
40
F8
FA
66
3C
ENDCHAR
STARTCHAR trademark
ENCODING 8482
SWIDTH 750 0
DWIDTH 8 0
BBX 6 3 1 5
BITMAP
D4
4C
44
ENDCHAR
STARTCHAR arrowleft
ENCODING 8592
SWIDTH 750 0
DWIDTH 8 0
BBX 6 5 1 2
BITMAP
40
C0
FC
C0
40
ENDCHAR
STARTCHAR arrowup
ENCODING 8593
SWIDTH 750 0
DWIDTH 8 0
BBX 5 7 1 1
BITMAP
20
70
F8
20
20
20
20
ENDCHAR
STARTCHAR arrowright
ENCODING 8594
SWIDTH 750 0
DWIDTH 8 0
BBX 6 5 1 2
BITMAP
10
18
FC
18
18
ENDCHAR
STARTCHAR arrowdown
ENCODING 8595
SWIDTH 750 0
DWIDTH 8 0
BBX 5 7 1 1
BITMAP
20
20
20
20
F8
78
20
ENDCHAR
STARTCHAR minus
ENCODING 8722
SWIDTH 750 0
DWIDTH 8 0
BBX 5 2 1 4
BITMAP
F8
F8
ENDCHAR
STARTCHAR uni2215
ENCODING 8725
SWIDTH 750 0
DWIDTH 8 0
BBX 6 6 1 2
BITMAP
0C
18
30
60
C0
C0
ENDCHAR
STARTCHAR uni231A
ENCODING 8986
SWIDTH 750 0
DWIDTH 8 0
BBX 8 7 0 1
BITMAP
3C
40
02
81
02
42
2C
ENDCHAR
STARTCHAR uni2386
ENCODING 9094
SWIDTH 750 0
DWIDTH 8 0
BBX 8 7 0 1
BITMAP
38
24
12
F9
12
74
28
ENDCHAR
STARTCHAR uni23CF
ENCODING 9167
SWIDTH 750 0
DWIDTH 8 0
BBX 6 7 1 1
BITMAP
20
70
F8
FC
00
FC
FC
ENDCHAR
STARTCHAR uni23E9
ENCODING 9193
SWIDTH 750 0
DWIDTH 8 0
BBX 7 8 0 0
BITMAP
90
D8
FC
FE
FE
FC
D8
90
ENDCHAR
STARTCHAR uni23EA
ENCODING 9194
SWIDTH 750 0
DWIDTH 8 0
BBX 7 8 1 0
BITMAP
26
66
FE
FE
FE
FE
66
02
ENDCHAR
STARTCHAR uni23F4
ENCODING 9204
SWIDTH 750 0
DWIDTH 8 0
BBX 4 8 2 0
BITMAP
30
30
F0
F0
F0
F0
30
10
ENDCHAR
STARTCHAR uni23F5
ENCODING 9205
SWIDTH 750 0
DWIDTH 8 0
BBX 4 8 2 0
BITMAP
80
C0
E0
F0
F0
E0
C0
80
ENDCHAR
STARTCHAR uni23F8
ENCODING 9208
SWIDTH 750 0
DWIDTH 8 0
BBX 5 8 1 0
BITMAP
D8
D8
D8
D8
D8
D8
D8
D8
ENDCHAR
STARTCHAR uni23F9
ENCODING 9209
SWIDTH 750 0
DWIDTH 8 0
BBX 6 8 1 0
BITMAP
FC
FC
FC
FC
FC
FC
FC
FC
ENDCHAR
STARTCHAR uni23FA
ENCODING 9210
SWIDTH 750 0
DWIDTH 8 0
BBX 8 7 0 1
BITMAP
3C
7C
7E
FF
7E
7E
3C
ENDCHAR
STARTCHAR uni2581
ENCODING 9601
SWIDTH 750 0
DWIDTH 8 0
BBX 8 2 0 -1
BITMAP
FF
FF
ENDCHAR
STARTCHAR uni2583
ENCODING 9603
SWIDTH 750 0
DWIDTH 8 0
BBX 8 4 0 -1
BITMAP
FF
FF
FF
FF
ENDCHAR
STARTCHAR dnblock
ENCODING 9604
SWIDTH 750 0
DWIDTH 8 0
BBX 8 5 0 -1
BITMAP
FF
FF
FF
FF
FF
ENDCHAR
STARTCHAR uni2586
ENCODING 9606
SWIDTH 750 0
DWIDTH 8 0
BBX 8 7 0 -1
BITMAP
FF
FF
FF
FF
FF
FF
FF
ENDCHAR
STARTCHAR uni2587
ENCODING 9607
SWIDTH 750 0
DWIDTH 8 0
BBX 8 9 0 -1
BITMAP
FF
FF
FF
FF
FF
FF
FF
FF
FF
ENDCHAR
STARTCHAR block
ENCODING 9608
SWIDTH 750 0
DWIDTH 8 0
BBX 8 11 0 -1
BITMAP
FF
FF
FF
FF
FF
FF
FF
FF
FF
FF
FF
ENDCHAR
STARTCHAR triagrt
ENCODING 9658
SWIDTH 750 0
DWIDTH 8 0
BBX 6 9 0 0
BITMAP
E0
F0
F0
FC
FC
FC
F8
F0
E0
ENDCHAR
STARTCHAR triaglf
ENCODING 9668
SWIDTH 750 0
DWIDTH 8 0
BBX 6 9 0 0
BITMAP
0C
3C
3C
7C
FC
7C
7C
3C
0C
ENDCHAR
STARTCHAR musicalnote
ENCODING 9834
SWIDTH 750 0
DWIDTH 8 0
BBX 6 8 1 1
BITMAP
20
30
38
24
24
E0
E0
C0
ENDCHAR
STARTCHAR uni3041
ENCODING 12353
SWIDTH 750 0
DWIDTH 8 0
BBX 1 1 0 0
BITMAP
00
ENDCHAR
STARTCHAR uni3042
ENCODING 12354
SWIDTH 750 0
DWIDTH 8 0
BBX 1 1 0 0
BITMAP
00
ENDCHAR
STARTCHAR uni3043
ENCODING 12355
SWIDTH 750 0
DWIDTH 8 0
BBX 1 1 0 0
BITMAP
00
ENDCHAR
STARTCHAR uni3044
ENCODING 12356
SWIDTH 750 0
DWIDTH 8 0
BBX 1 1 0 0
BITMAP
00
ENDCHAR
STARTCHAR uni3045
ENCODING 12357
SWIDTH 750 0
DWIDTH 8 0
BBX 1 1 0 0
BITMAP
00
ENDCHAR
STARTCHAR uni3046
ENCODING 12358
SWIDTH 750 0
DWIDTH 8 0
BBX 1 1 0 0
BITMAP
00
ENDCHAR
STARTCHAR uni3047
ENCODING 12359
SWIDTH 750 0
DWIDTH 8 0
BBX 1 1 0 0
BITMAP
00
ENDCHAR
STARTCHAR uni3048
ENCODING 12360
SWIDTH 750 0
DWIDTH 8 0
BBX 1 1 0 0
BITMAP
00
ENDCHAR
STARTCHAR uni3049
ENCODING 12361
SWIDTH 750 0
DWIDTH 8 0
BBX 1 1 0 0
BITMAP
00
ENDCHAR
STARTCHAR uni304A
ENCODING 12362
SWIDTH 750 0
DWIDTH 8 0
BBX 1 1 0 0
BITMAP
00
ENDCHAR
STARTCHAR uni304B
ENCODING 12363
SWIDTH 750 0
DWIDTH 8 0
BBX 1 1 0 0
BITMAP
00
ENDCHAR
STARTCHAR uni304D
ENCODING 12365
SWIDTH 750 0
DWIDTH 8 0
BBX 1 1 0 0
BITMAP
00
ENDCHAR
STARTCHAR uni304F
ENCODING 12367
SWIDTH 750 0
DWIDTH 8 0
BBX 1 1 0 0
BITMAP
00
ENDCHAR
STARTCHAR uni3051
ENCODING 12369
SWIDTH 750 0
DWIDTH 8 0
BBX 1 1 0 0
BITMAP
00
ENDCHAR
STARTCHAR uni3053
ENCODING 12371
SWIDTH 750 0
DWIDTH 8 0
BBX 1 1 0 0
BITMAP
00
ENDCHAR
STARTCHAR uni3055
ENCODING 12373
SWIDTH 750 0
DWIDTH 8 0
BBX 1 1 0 0
BITMAP
00
ENDCHAR
STARTCHAR uni3057
ENCODING 12375
SWIDTH 750 0
DWIDTH 8 0
BBX 1 1 0 0
BITMAP
00
ENDCHAR
STARTCHAR uni3059
ENCODING 12377
SWIDTH 750 0
DWIDTH 8 0
BBX 1 1 0 0
BITMAP
00
ENDCHAR
STARTCHAR uni305B
ENCODING 12379
SWIDTH 750 0
DWIDTH 8 0
BBX 1 1 0 0
BITMAP
00
ENDCHAR
STARTCHAR uni305D
ENCODING 12381
SWIDTH 750 0
DWIDTH 8 0
BBX 1 1 0 0
BITMAP
00
ENDCHAR
STARTCHAR uni305F
ENCODING 12383
SWIDTH 750 0
DWIDTH 8 0
BBX 1 1 0 0
BITMAP
00
ENDCHAR
STARTCHAR uni3061
ENCODING 12385
SWIDTH 750 0
DWIDTH 8 0
BBX 1 1 0 0
BITMAP
00
ENDCHAR
STARTCHAR uni3063
ENCODING 12387
SWIDTH 750 0
DWIDTH 8 0
BBX 1 1 0 0
BITMAP
00
ENDCHAR
STARTCHAR uni3064
ENCODING 12388
SWIDTH 750 0
DWIDTH 8 0
BBX 1 1 0 0
BITMAP
00
ENDCHAR
STARTCHAR uni3066
ENCODING 12390
SWIDTH 750 0
DWIDTH 8 0
BBX 1 1 0 0
BITMAP
00
ENDCHAR
STARTCHAR uni3068
ENCODING 12392
SWIDTH 750 0
DWIDTH 8 0
BBX 1 1 0 0
BITMAP
00
ENDCHAR
STARTCHAR uni306A
ENCODING 12394
SWIDTH 750 0
DWIDTH 8 0
BBX 1 1 0 0
BITMAP
00
ENDCHAR
STARTCHAR uni306B
ENCODING 12395
SWIDTH 750 0
DWIDTH 8 0
BBX 1 1 0 0
BITMAP
00
ENDCHAR
STARTCHAR uni306C
ENCODING 12396
SWIDTH 750 0
DWIDTH 8 0
BBX 1 1 0 0
BITMAP
00
ENDCHAR
STARTCHAR uni306D
ENCODING 12397
SWIDTH 750 0
DWIDTH 8 0
BBX 1 1 0 0
BITMAP
00
ENDCHAR
STARTCHAR uni306E
ENCODING 12398
SWIDTH 750 0
DWIDTH 8 0
BBX 1 1 0 0
BITMAP
00
ENDCHAR
STARTCHAR uni306F
ENCODING 12399
SWIDTH 750 0
DWIDTH 8 0
BBX 1 1 0 0
BITMAP
00
ENDCHAR
STARTCHAR uni3072
ENCODING 12402
SWIDTH 750 0
DWIDTH 8 0
BBX 1 1 0 0
BITMAP
00
ENDCHAR
STARTCHAR uni3075
ENCODING 12405
SWIDTH 750 0
DWIDTH 8 0
BBX 1 1 0 0
BITMAP
00
ENDCHAR
STARTCHAR uni3078
ENCODING 12408
SWIDTH 750 0
DWIDTH 8 0
BBX 1 1 0 0
BITMAP
00
ENDCHAR
STARTCHAR uni307B
ENCODING 12411
SWIDTH 750 0
DWIDTH 8 0
BBX 1 1 0 0
BITMAP
00
ENDCHAR
STARTCHAR uni307E
ENCODING 12414
SWIDTH 750 0
DWIDTH 8 0
BBX 1 1 0 0
BITMAP
00
ENDCHAR
STARTCHAR uni307F
ENCODING 12415
SWIDTH 750 0
DWIDTH 8 0
BBX 1 1 0 0
BITMAP
00
ENDCHAR
STARTCHAR uni3080
ENCODING 12416
SWIDTH 750 0
DWIDTH 8 0
BBX 1 1 0 0
BITMAP
00
ENDCHAR
STARTCHAR uni3081
ENCODING 12417
SWIDTH 750 0
DWIDTH 8 0
BBX 1 1 0 0
BITMAP
00
ENDCHAR
STARTCHAR uni3082
ENCODING 12418
SWIDTH 750 0
DWIDTH 8 0
BBX 1 1 0 0
BITMAP
00
ENDCHAR
STARTCHAR uni3083
ENCODING 12419
SWIDTH 750 0
DWIDTH 8 0
BBX 1 1 0 0
BITMAP
00
ENDCHAR
STARTCHAR uni3084
ENCODING 12420
SWIDTH 750 0
DWIDTH 8 0
BBX 1 1 0 0
BITMAP
00
ENDCHAR
STARTCHAR uni3085
ENCODING 12421
SWIDTH 750 0
DWIDTH 8 0
BBX 1 1 0 0
BITMAP
00
ENDCHAR
STARTCHAR uni3086
ENCODING 12422
SWIDTH 750 0
DWIDTH 8 0
BBX 1 1 0 0
BITMAP
00
ENDCHAR
STARTCHAR uni3087
ENCODING 12423
SWIDTH 750 0
DWIDTH 8 0
BBX 1 1 0 0
BITMAP
00
ENDCHAR
STARTCHAR uni3088
ENCODING 12424
SWIDTH 750 0
DWIDTH 8 0
BBX 1 1 0 0
BITMAP
00
ENDCHAR
STARTCHAR uni3089
ENCODING 12425
SWIDTH 750 0
DWIDTH 8 0
BBX 1 1 0 0
BITMAP
00
ENDCHAR
STARTCHAR uni308A
ENCODING 12426
SWIDTH 750 0
DWIDTH 8 0
BBX 1 1 0 0
BITMAP
00
ENDCHAR
STARTCHAR uni308B
ENCODING 12427
SWIDTH 750 0
DWIDTH 8 0
BBX 1 1 0 0
BITMAP
00
ENDCHAR
STARTCHAR uni308C
ENCODING 12428
SWIDTH 750 0
DWIDTH 8 0
BBX 1 1 0 0
BITMAP
00
ENDCHAR
STARTCHAR uni308D
ENCODING 12429
SWIDTH 750 0
DWIDTH 8 0
BBX 1 1 0 0
BITMAP
00
ENDCHAR
STARTCHAR uni308F
ENCODING 12431
SWIDTH 750 0
DWIDTH 8 0
BBX 1 1 0 0
BITMAP
00
ENDCHAR
STARTCHAR uni3092
ENCODING 12434
SWIDTH 750 0
DWIDTH 8 0
BBX 1 1 0 0
BITMAP
00
ENDCHAR
STARTCHAR uni3093
ENCODING 12435
SWIDTH 750 0
DWIDTH 8 0
BBX 1 1 0 0
BITMAP
00
ENDCHAR
STARTCHAR uni3099
ENCODING 12441
SWIDTH 750 0
DWIDTH 8 0
BBX 1 1 0 0
BITMAP
00
ENDCHAR
STARTCHAR uni309A
ENCODING 12442
SWIDTH 750 0
DWIDTH 8 0
BBX 1 1 0 0
BITMAP
00
ENDCHAR
STARTCHAR uni309B
ENCODING 12443
SWIDTH 750 0
DWIDTH 8 0
BBX 1 1 0 0
BITMAP
00
ENDCHAR
STARTCHAR uni309C
ENCODING 12444
SWIDTH 750 0
DWIDTH 8 0
BBX 1 1 0 0
BITMAP
00
ENDCHAR
STARTCHAR uni30A0
ENCODING 12448
SWIDTH 750 0
DWIDTH 8 0
BBX 1 1 0 0
BITMAP
00
ENDCHAR
STARTCHAR uni30A1
ENCODING 12449
SWIDTH 750 0
DWIDTH 8 0
BBX 1 1 0 0
BITMAP
00
ENDCHAR
STARTCHAR uni30A2
ENCODING 12450
SWIDTH 750 0
DWIDTH 8 0
BBX 1 1 0 0
BITMAP
00
ENDCHAR
STARTCHAR uni30A3
ENCODING 12451
SWIDTH 750 0
DWIDTH 8 0
BBX 1 1 0 0
BITMAP
00
ENDCHAR
STARTCHAR uni30A4
ENCODING 12452
SWIDTH 750 0
DWIDTH 8 0
BBX 1 1 0 0
BITMAP
00
ENDCHAR
STARTCHAR uni30A5
ENCODING 12453
SWIDTH 750 0
DWIDTH 8 0
BBX 1 1 0 0
BITMAP
00
ENDCHAR
STARTCHAR uni30A6
ENCODING 12454
SWIDTH 750 0
DWIDTH 8 0
BBX 1 1 0 0
BITMAP
00
ENDCHAR
STARTCHAR uni30A7
ENCODING 12455
SWIDTH 750 0
DWIDTH 8 0
BBX 1 1 0 0
BITMAP
00
ENDCHAR
STARTCHAR uni30A8
ENCODING 12456
SWIDTH 750 0
DWIDTH 8 0
BBX 1 1 0 0
BITMAP
00
ENDCHAR
STARTCHAR uni30A9
ENCODING 12457
SWIDTH 750 0
DWIDTH 8 0
BBX 1 1 0 0
BITMAP
00
ENDCHAR
STARTCHAR uni30AA
ENCODING 12458
SWIDTH 750 0
DWIDTH 8 0
BBX 1 1 0 0
BITMAP
00
ENDCHAR
STARTCHAR uni30AB
ENCODING 12459
SWIDTH 750 0
DWIDTH 8 0
BBX 1 1 0 0
BITMAP
00
ENDCHAR
STARTCHAR uni30AD
ENCODING 12461
SWIDTH 750 0
DWIDTH 8 0
BBX 1 1 0 0
BITMAP
00
ENDCHAR
STARTCHAR uni30AF
ENCODING 12463
SWIDTH 750 0
DWIDTH 8 0
BBX 1 1 0 0
BITMAP
00
ENDCHAR
STARTCHAR uni30B3
ENCODING 12467
SWIDTH 750 0
DWIDTH 8 0
BBX 1 1 0 0
BITMAP
00
ENDCHAR
STARTCHAR uni30B5
ENCODING 12469
SWIDTH 750 0
DWIDTH 8 0
BBX 1 1 0 0
BITMAP
00
ENDCHAR
STARTCHAR uni30B7
ENCODING 12471
SWIDTH 750 0
DWIDTH 8 0
BBX 1 1 0 0
BITMAP
00
ENDCHAR
STARTCHAR uni30B9
ENCODING 12473
SWIDTH 750 0
DWIDTH 8 0
BBX 1 1 0 0
BITMAP
00
ENDCHAR
STARTCHAR uni30BB
ENCODING 12475
SWIDTH 750 0
DWIDTH 8 0
BBX 1 1 0 0
BITMAP
00
ENDCHAR
STARTCHAR uni30BD
ENCODING 12477
SWIDTH 750 0
DWIDTH 8 0
BBX 1 1 0 0
BITMAP
00
ENDCHAR
STARTCHAR uni30BF
ENCODING 12479
SWIDTH 750 0
DWIDTH 8 0
BBX 1 1 0 0
BITMAP
00
ENDCHAR
STARTCHAR uni30C1
ENCODING 12481
SWIDTH 750 0
DWIDTH 8 0
BBX 1 1 0 0
BITMAP
00
ENDCHAR
STARTCHAR uni30C3
ENCODING 12483
SWIDTH 750 0
DWIDTH 8 0
BBX 1 1 0 0
BITMAP
00
ENDCHAR
STARTCHAR uni30C4
ENCODING 12484
SWIDTH 750 0
DWIDTH 8 0
BBX 1 1 0 0
BITMAP
00
ENDCHAR
STARTCHAR uni30C6
ENCODING 12486
SWIDTH 750 0
DWIDTH 8 0
BBX 1 1 0 0
BITMAP
00
ENDCHAR
STARTCHAR uni30C8
ENCODING 12488
SWIDTH 750 0
DWIDTH 8 0
BBX 1 1 0 0
BITMAP
00
ENDCHAR
STARTCHAR uni30CA
ENCODING 12490
SWIDTH 750 0
DWIDTH 8 0
BBX 1 1 0 0
BITMAP
00
ENDCHAR
STARTCHAR uni30CB
ENCODING 12491
SWIDTH 750 0
DWIDTH 8 0
BBX 1 1 0 0
BITMAP
00
ENDCHAR
STARTCHAR uni30CC
ENCODING 12492
SWIDTH 750 0
DWIDTH 8 0
BBX 1 1 0 0
BITMAP
00
ENDCHAR
STARTCHAR uni30CD
ENCODING 12493
SWIDTH 750 0
DWIDTH 8 0
BBX 1 1 0 0
BITMAP
00
ENDCHAR
STARTCHAR uni30CE
ENCODING 12494
SWIDTH 750 0
DWIDTH 8 0
BBX 1 1 0 0
BITMAP
00
ENDCHAR
STARTCHAR uni30CF
ENCODING 12495
SWIDTH 750 0
DWIDTH 8 0
BBX 1 1 0 0
BITMAP
00
ENDCHAR
STARTCHAR uni30D2
ENCODING 12498
SWIDTH 750 0
DWIDTH 8 0
BBX 1 1 0 0
BITMAP
00
ENDCHAR
STARTCHAR uni30D5
ENCODING 12501
SWIDTH 750 0
DWIDTH 8 0
BBX 1 1 0 0
BITMAP
00
ENDCHAR
STARTCHAR uni30D8
ENCODING 12504
SWIDTH 750 0
DWIDTH 8 0
BBX 1 1 0 0
BITMAP
00
ENDCHAR
STARTCHAR uni30DB
ENCODING 12507
SWIDTH 750 0
DWIDTH 8 0
BBX 1 1 0 0
BITMAP
00
ENDCHAR
STARTCHAR uni30DE
ENCODING 12510
SWIDTH 750 0
DWIDTH 8 0
BBX 1 1 0 0
BITMAP
00
ENDCHAR
STARTCHAR uni30DF
ENCODING 12511
SWIDTH 750 0
DWIDTH 8 0
BBX 1 1 0 0
BITMAP
00
ENDCHAR
STARTCHAR uni30E0
ENCODING 12512
SWIDTH 750 0
DWIDTH 8 0
BBX 1 1 0 0
BITMAP
00
ENDCHAR
STARTCHAR uni30E1
ENCODING 12513
SWIDTH 750 0
DWIDTH 8 0
BBX 1 1 0 0
BITMAP
00
ENDCHAR
STARTCHAR uni30E2
ENCODING 12514
SWIDTH 750 0
DWIDTH 8 0
BBX 1 1 0 0
BITMAP
00
ENDCHAR
STARTCHAR uni30E3
ENCODING 12515
SWIDTH 750 0
DWIDTH 8 0
BBX 1 1 0 0
BITMAP
00
ENDCHAR
STARTCHAR uni30E4
ENCODING 12516
SWIDTH 750 0
DWIDTH 8 0
BBX 1 1 0 0
BITMAP
00
ENDCHAR
STARTCHAR uni30E5
ENCODING 12517
SWIDTH 750 0
DWIDTH 8 0
BBX 1 1 0 0
BITMAP
00
ENDCHAR
STARTCHAR uni30E6
ENCODING 12518
SWIDTH 750 0
DWIDTH 8 0
BBX 1 1 0 0
BITMAP
00
ENDCHAR
STARTCHAR uni30E7
ENCODING 12519
SWIDTH 750 0
DWIDTH 8 0
BBX 1 1 0 0
BITMAP
00
ENDCHAR
STARTCHAR uni30E8
ENCODING 12520
SWIDTH 750 0
DWIDTH 8 0
BBX 1 1 0 0
BITMAP
00
ENDCHAR
STARTCHAR uni30E9
ENCODING 12521
SWIDTH 750 0
DWIDTH 8 0
BBX 1 1 0 0
BITMAP
00
ENDCHAR
STARTCHAR uni30EA
ENCODING 12522
SWIDTH 750 0
DWIDTH 8 0
BBX 1 1 0 0
BITMAP
00
ENDCHAR
STARTCHAR uni30EB
ENCODING 12523
SWIDTH 750 0
DWIDTH 8 0
BBX 1 1 0 0
BITMAP
00
ENDCHAR
STARTCHAR uni30EC
ENCODING 12524
SWIDTH 750 0
DWIDTH 8 0
BBX 1 1 0 0
BITMAP
00
ENDCHAR
STARTCHAR uni30ED
ENCODING 12525
SWIDTH 750 0
DWIDTH 8 0
BBX 1 1 0 0
BITMAP
00
ENDCHAR
STARTCHAR uni30EE
ENCODING 12526
SWIDTH 750 0
DWIDTH 8 0
BBX 1 1 0 0
BITMAP
00
ENDCHAR
STARTCHAR uni30EF
ENCODING 12527
SWIDTH 750 0
DWIDTH 8 0
BBX 1 1 0 0
BITMAP
00
ENDCHAR
STARTCHAR uni30F1
ENCODING 12529
SWIDTH 750 0
DWIDTH 8 0
BBX 1 1 0 0
BITMAP
00
ENDCHAR
STARTCHAR uni30F2
ENCODING 12530
SWIDTH 750 0
DWIDTH 8 0
BBX 1 1 0 0
BITMAP
00
ENDCHAR
STARTCHAR uni30F3
ENCODING 12531
SWIDTH 750 0
DWIDTH 8 0
BBX 1 1 0 0
BITMAP
00
ENDCHAR
STARTCHAR uni30FB
ENCODING 12539
SWIDTH 750 0
DWIDTH 8 0
BBX 1 1 0 0
BITMAP
00
ENDCHAR
STARTCHAR uniFFFD
ENCODING 65533
SWIDTH 750 0
DWIDTH 8 0
BBX 8 11 0 -1
BITMAP
FF
B9
FD
E5
8D
8D
91
91
81
91
81
ENDCHAR
STARTCHAR .notdef
ENCODING -1
SWIDTH 735 0
DWIDTH 7 0
BBX 7 9 0 0
BITMAP
FE
02
02
22
12
02
02
06
82
ENDCHAR
ENDFONT
